<?xml version="1.0" standalone="no"?>
<!DOCTYPE svg PUBLIC "-//W3C//DTD SVG 20010904//EN"
 "http://www.w3.org/TR/2001/REC-SVG-20010904/DTD/svg10.dtd">
<svg version="1.0" xmlns="http://www.w3.org/2000/svg"
 width="517.000000pt" height="477.000000pt" viewBox="0 0 517.000000 477.000000"
 preserveAspectRatio="xMidYMid meet">

<g transform="translate(0.000000,477.000000) scale(0.100000,-0.100000)"
fill="#000000" stroke="none">
<path d="M2580 4622 c-214 -9 -422 -43 -584 -94 -74 -23 -319 -141 -426 -204
-175 -104 -382 -268 -490 -388 -25 -28 -66 -74 -92 -101 -117 -126 -312 -394
-378 -519 -66 -126 -134 -376 -175 -643 -27 -174 -10 -579 32 -783 44 -211 66
-269 219 -580 106 -215 155 -289 292 -440 71 -79 121 -126 290 -274 60 -52
264 -196 279 -196 3 0 14 -6 22 -14 38 -35 310 -160 456 -210 167 -58 217 -71
300 -81 28 -3 64 -8 81 -10 49 -8 553 -8 619 0 290 34 645 162 895 323 183
117 242 166 371 301 267 282 438 568 542 911 117 382 132 465 132 715 -1 213
-19 366 -70 580 -36 152 -55 198 -163 402 -206 391 -284 490 -624 794 -206
184 -350 277 -554 354 -287 110 -668 172 -974 157z m37 -119 c27 -125 47 -252
41 -258 -2 -2 -21 36 -42 85 -21 50 -60 126 -87 171 -27 44 -49 85 -49 90 0 5
26 9 58 9 l59 0 20 -97z m103 -26 c0 -163 -11 -342 -20 -325 -4 7 -11 40 -14
73 -6 55 -50 299 -63 353 -5 21 -2 22 46 22 l51 0 0 -123z m96 106 c-2 -10
-14 -67 -26 -127 -24 -127 -47 -217 -56 -225 -4 -3 -4 16 0 43 3 27 6 111 6
187 l0 139 41 0 c34 0 40 -3 35 -17z m111 3 c2 -1 -32 -77 -75 -168 -42 -91
-78 -165 -80 -163 -2 2 13 77 32 168 20 91 36 168 36 172 0 6 80 -3 87 -9z
m-441 -53 c48 -75 124 -222 124 -242 0 -8 -14 6 -30 32 -40 59 -139 151 -218
202 -34 22 -62 43 -62 47 0 6 41 12 117 16 29 2 36 -4 69 -55z m562 31 c21
-14 31 -44 14 -44 -17 0 -139 -130 -204 -217 -38 -51 -71 -93 -74 -93 -6 0 11
40 94 212 l80 168 34 -6 c18 -4 43 -13 56 -20z m-708 -50 c100 -65 174 -136
232 -219 l41 -60 -74 71 c-108 102 -220 174 -329 209 -78 25 -80 28 -30 41 68
18 69 18 160 -42z m902 -59 c49 -93 94 -212 84 -222 -3 -3 -17 19 -31 49 -23
48 -116 175 -182 248 -13 14 -23 28 -23 31 0 4 24 2 53 -5 l52 -11 47 -90z
m70 64 c26 -6 50 -18 54 -28 9 -21 15 -301 7 -314 -4 -6 -12 17 -19 52 -7 34
-37 114 -66 178 -29 64 -55 121 -57 126 -2 5 5 7 15 4 11 -4 40 -11 66 -18z
m-1222 6 c0 -3 -9 -38 -21 -78 -15 -52 -22 -114 -26 -225 -3 -84 -8 -151 -10
-148 -9 9 -73 343 -73 382 0 41 0 41 53 56 58 17 77 20 77 13z m72 -17 c21 -6
37 -14 36 -17 -2 -3 -19 -35 -37 -71 -19 -36 -50 -114 -68 -175 l-34 -110 5
115 c3 63 10 131 15 150 5 19 15 54 21 78 12 47 9 46 62 30z m967 -27 l20 -28
-52 -28 c-61 -33 -183 -123 -212 -155 -11 -12 -28 -26 -39 -32 -32 -17 40 76
138 179 48 51 97 93 107 93 9 0 27 -13 38 -29z m326 -1 c21 -8 25 -16 25 -53
0 -44 -75 -366 -88 -379 -4 -4 -4 32 0 80 9 123 9 279 -1 330 -8 42 -8 43 15
38 13 -4 35 -11 49 -16z m-1190 -7 c33 -16 46 -33 25 -33 -14 0 -123 -140
-156 -200 -15 -27 -29 -48 -31 -46 -14 13 103 296 123 296 2 0 19 -8 39 -17z
m-325 -30 c0 -14 15 -102 34 -197 54 -271 54 -268 -19 -121 -36 72 -74 153
-84 180 -11 28 -27 67 -35 88 l-17 38 53 24 c58 27 68 25 68 -12z m1628 -4
c12 -5 22 -14 22 -21 0 -18 -176 -438 -189 -451 -6 -6 -2 20 9 59 39 134 90
362 90 398 0 40 0 40 68 15z m-1166 -45 c62 -40 197 -173 238 -236 21 -31 43
-78 49 -104 14 -55 7 -63 -49 -64 -74 -1 -180 -74 -218 -150 l-19 -39 -47 34
c-60 43 -130 59 -217 52 l-69 -6 -1 32 c-4 146 41 275 146 414 83 111 104 119
187 67z m808 -16 c49 -62 124 -213 140 -285 27 -117 16 -261 -18 -248 -89 34
-199 23 -287 -30 l-55 -34 -16 31 c-27 53 -96 119 -156 149 -32 16 -64 29 -73
29 -25 0 -29 28 -9 78 30 78 199 236 353 329 30 18 61 33 68 33 7 0 31 -23 53
-52z m-1388 -5 c9 -21 43 -100 76 -175 33 -76 59 -138 57 -138 -1 0 -33 41
-71 92 -38 51 -95 119 -127 151 -32 32 -57 60 -55 61 21 17 93 54 98 51 4 -2
14 -21 22 -42z m1828 27 c12 -7 9 -20 -19 -82 -105 -227 -163 -338 -180 -348
-26 -14 -36 -13 -23 3 11 14 42 86 127 295 32 78 63 142 69 142 6 0 18 -4 26
-10z m83 -36 c18 -9 34 -18 36 -20 2 -2 -23 -34 -56 -71 -66 -75 -136 -168
-172 -226 -13 -21 -25 -36 -27 -34 -6 6 170 367 179 367 4 0 22 -7 40 -16z
m-1995 -71 c53 -54 232 -283 232 -297 0 -4 -51 44 -112 106 -102 103 -221 198
-248 198 -31 0 32 49 63 50 5 0 34 -26 65 -57z m2132 -25 c0 -5 -4 -8 -10 -8
-16 0 -136 -77 -195 -125 -31 -25 -58 -45 -62 -45 -14 0 70 112 141 187 l49
52 38 -27 c21 -15 39 -30 39 -34z m-2210 -20 c35 -24 101 -78 147 -122 83 -78
108 -115 56 -80 -90 58 -130 78 -220 109 -55 19 -123 37 -152 41 -28 4 -51 9
-50 13 1 15 106 81 130 81 14 0 54 -19 89 -42z m2256 -6 c6 -4 14 -16 18 -28
6 -19 0 -23 -59 -37 -36 -9 -93 -28 -128 -42 -34 -15 -71 -29 -82 -32 -25 -7
77 67 153 112 59 34 79 40 98 27z m91 -74 c24 -26 32 -44 36 -90 6 -60 -1
-138 -12 -138 -4 0 -13 29 -20 64 -7 35 -19 75 -26 89 -17 33 -29 107 -18 107
5 0 23 -15 40 -32z m-2372 -32 c61 -20 121 -46 135 -57 l25 -21 -25 6 c-88 21
-279 49 -362 54 -43 2 -78 8 -78 12 0 4 15 18 33 30 45 30 131 22 272 -24z
m2310 13 c4 -11 5 -22 3 -23 -1 -2 -48 -8 -103 -15 -55 -6 -111 -14 -125 -17
-20 -4 -22 -3 -10 5 17 12 152 58 190 64 14 2 28 5 32 6 4 0 10 -8 13 -20z
m159 -68 c27 -28 28 -32 18 -78 -6 -27 -26 -89 -44 -139 l-32 -89 -7 48 c-6
35 -3 58 8 85 11 24 16 66 16 120 0 45 3 82 7 82 3 0 19 -13 34 -29z m-2703
-118 c0 -76 4 -162 8 -190 7 -50 -1 -73 -12 -35 -3 9 -15 42 -26 74 -11 31
-30 98 -41 150 -11 51 -22 103 -25 116 -5 21 -2 22 45 22 l50 0 1 -137z m106
124 c1 -2 -10 -27 -25 -57 -15 -30 -35 -91 -44 -135 l-17 -80 0 144 -1 144 42
-7 c23 -4 43 -8 45 -9z m2475 -45 c27 -84 42 -239 30 -303 -17 -94 -41 -169
-68 -214 -41 -71 -47 -73 -100 -26 -74 65 -143 94 -227 95 -40 1 -84 -3 -98
-7 -26 -8 -27 -7 -34 40 -10 70 -43 139 -82 174 -43 37 -40 59 19 117 99 99
336 184 498 178 l45 -1 17 -53z m-2677 -62 c19 -101 46 -189 89 -284 32 -72
30 -95 -3 -34 -13 24 -38 66 -56 93 -49 75 -145 244 -145 254 0 15 82 83 90
74 4 -4 15 -51 25 -103z m417 75 c78 -17 147 -53 261 -137 37 -27 67 -51 67
-53 0 -1 -24 -21 -54 -43 -74 -56 -105 -120 -109 -227 -3 -64 -6 -79 -18 -76
-112 32 -204 23 -285 -27 -27 -17 -52 -28 -57 -23 -4 4 -21 47 -39 97 -53 150
-50 332 8 445 13 26 29 49 36 52 26 11 119 7 190 -8z m2475 -52 c27 -25 13
-58 -98 -236 -104 -167 -117 -166 -37 2 21 45 51 125 65 177 28 98 27 98 70
57z m-2966 -116 c29 -51 69 -118 90 -150 57 -86 47 -88 -25 -5 -36 41 -92 98
-125 127 -34 29 -61 57 -61 64 0 15 51 67 61 61 4 -2 31 -46 60 -97z m1577 55
c57 -27 125 -95 157 -158 10 -22 20 -41 22 -43 1 -2 14 10 28 27 54 65 221 96
306 59 95 -42 144 -120 144 -229 0 -38 1 -68 3 -68 1 0 17 10 33 23 45 33 154
31 229 -4 154 -71 209 -200 151 -349 -11 -30 -21 -58 -21 -62 0 -5 19 -8 43
-8 95 0 211 -91 248 -194 18 -51 19 -65 9 -107 -13 -51 -70 -154 -97 -174 -21
-15 -11 -31 24 -38 42 -9 130 -92 160 -151 36 -71 42 -165 14 -227 -37 -81
-94 -124 -240 -175 -10 -3 1 -19 34 -52 103 -101 135 -244 79 -355 -51 -101
-94 -127 -214 -127 -44 0 -80 -2 -80 -5 0 -3 12 -28 27 -56 34 -67 40 -132 18
-203 -36 -113 -133 -184 -265 -193 -60 -5 -68 -3 -107 26 -24 17 -47 31 -51
31 -5 0 -12 -27 -15 -60 -16 -145 -143 -281 -278 -297 -102 -12 -232 60 -259
143 -14 41 -25 43 -44 5 -24 -45 -126 -132 -191 -162 -36 -17 -87 -31 -126
-35 -164 -16 -309 90 -309 226 0 26 -3 49 -6 53 -4 3 -21 -5 -38 -18 -17 -13
-52 -33 -76 -44 -61 -28 -178 -28 -237 -2 -58 27 -124 91 -153 148 -32 62 -39
172 -16 227 24 57 21 60 -30 30 -38 -23 -53 -26 -95 -21 -71 9 -137 41 -192
95 -76 74 -90 109 -95 234 -4 102 -3 110 22 153 15 25 40 55 56 67 36 26 30
38 -18 38 -83 0 -217 109 -242 198 -16 61 -12 181 9 227 22 50 98 121 157 146
24 11 44 23 44 27 0 4 -15 19 -33 33 -18 15 -48 55 -67 90 -32 58 -35 72 -35
144 0 67 5 89 28 137 45 92 149 158 248 158 27 0 49 2 49 5 0 3 -10 20 -22 36
-21 28 -23 42 -23 144 l0 114 45 46 c87 89 215 126 316 91 73 -25 72 -26 72
67 -1 126 36 194 141 263 41 26 52 29 131 29 82 0 90 -2 146 -36 32 -20 63
-46 69 -58 13 -29 23 -26 31 7 21 99 105 174 213 191 61 10 105 3 169 -27z
m1419 -152 c-51 -52 -124 -128 -162 -168 -39 -40 -71 -68 -73 -62 -2 6 5 21
16 33 31 35 169 254 199 318 l28 59 42 -42 43 -42 -93 -96z m-3067 50 c65 -57
234 -243 254 -278 5 -9 -19 6 -55 34 -72 57 -197 143 -279 193 -30 18 -57 35
-59 37 -6 6 49 74 61 74 6 0 41 -27 78 -60z m3215 -28 c-47 -42 -357 -284
-360 -280 -2 2 68 79 157 172 l161 167 26 -25 c16 -16 22 -29 16 -34z m-3327
-29 c115 -66 307 -202 298 -210 -2 -3 -24 6 -48 18 -39 20 -150 67 -285 121
-58 23 -68 45 -36 80 20 23 16 23 71 -9z m3370 -31 c-17 -20 -140 -118 -223
-178 -54 -39 -82 -52 -120 -57 -41 -5 -47 -4 -31 6 10 7 93 72 184 144 156
125 167 132 184 116 14 -13 16 -19 6 -31z m50 -41 l22 -30 -58 -34 c-173 -103
-223 -128 -244 -125 -19 2 -7 15 72 75 52 39 113 87 135 107 22 19 43 35 46
36 3 0 15 -13 27 -29z m-3557 -122 c-10 -112 4 -307 24 -339 5 -8 3 -11 -5 -8
-17 5 -67 127 -79 194 -6 32 -11 85 -11 118 0 54 5 67 36 109 20 27 38 47 40
44 2 -2 0 -55 -5 -118z m165 75 c217 -91 254 -108 250 -111 -2 -2 -28 3 -57
11 -63 17 -190 42 -272 53 -32 4 -58 11 -57 16 0 4 0 23 0 42 0 23 5 35 14 35
7 0 62 -21 122 -46z m3434 -45 c0 -19 -6 -32 -17 -36 -10 -3 -55 -22 -101 -41
-64 -27 -88 -33 -104 -25 -19 8 -8 17 93 75 63 36 117 64 122 61 4 -2 7 -18 7
-34z m50 -74 c0 -92 -84 -311 -157 -406 -20 -27 -38 -47 -40 -45 -2 1 19 45
46 97 60 113 104 253 116 372 6 53 8 57 21 40 7 -10 14 -36 14 -58z m-3432 30
c35 -7 66 -15 69 -19 3 -3 -56 -5 -131 -5 l-136 1 0 25 c0 25 0 25 68 18 37
-4 95 -13 130 -20z m-305 -82 c6 -77 29 -159 61 -221 27 -52 10 -37 -50 46
-31 42 -68 89 -81 104 -17 18 -23 33 -19 46 9 26 64 102 75 102 4 0 11 -35 14
-77z m3677 45 c0 -45 -12 -70 -29 -62 -9 3 -36 11 -59 16 -50 11 -47 19 23 47
64 25 65 25 65 -1z m-3371 -9 l46 -1 -61 -13 c-34 -8 -88 -23 -120 -34 -32
-12 -62 -21 -67 -21 -4 0 -7 15 -5 33 3 30 5 32 53 38 28 4 63 5 79 3 16 -2
49 -4 75 -5z m3490 -46 c17 -31 31 -61 31 -66 0 -21 -167 -224 -176 -214 -3 2
4 20 15 38 25 44 91 242 91 274 0 14 2 25 4 25 3 0 18 -26 35 -57z m-3199 4
c30 -12 64 -27 75 -34 20 -11 20 -12 -1 -35 -12 -13 -27 -33 -33 -45 -17 -32
-14 -197 4 -240 19 -45 20 -43 -15 -43 -82 0 -206 -82 -241 -160 -12 -27 -26
-50 -30 -50 -5 0 -34 26 -66 59 -94 95 -162 256 -178 421 -8 78 -7 79 85 108
147 48 309 55 400 19z m2985 -14 l70 -18 -3 -34 c-4 -53 -46 -164 -94 -249
-42 -75 -172 -222 -196 -222 -6 0 -20 17 -31 38 -38 74 -164 162 -234 162 -25
0 -27 3 -21 28 4 15 11 35 16 46 14 27 13 125 -2 170 -12 37 -11 40 11 57 66
50 330 62 484 22z m-3664 -70 c56 -62 219 -299 219 -318 0 -5 -19 9 -42 31
-24 23 -86 75 -138 116 -52 41 -103 84 -113 96 -18 20 -18 21 7 61 15 23 30
41 34 41 5 0 19 -12 33 -27z m3949 -52 l20 -40 -53 -50 c-57 -54 -260 -203
-292 -215 -11 -4 16 28 61 71 81 78 171 179 213 241 12 17 24 32 26 32 3 0 14
-18 25 -39z m-3986 -84 c34 -29 88 -74 121 -99 33 -25 78 -65 100 -89 l40 -42
-55 30 c-30 17 -104 56 -165 88 -157 81 -151 75 -129 124 10 23 20 41 22 41 3
0 32 -24 66 -53z m4053 -42 c15 -30 25 -56 22 -58 -12 -9 -369 -147 -394 -153
-20 -5 12 23 100 86 72 51 152 112 179 136 26 24 52 44 57 44 5 0 21 -25 36
-55z m-4132 -29 c11 -7 67 -37 125 -67 152 -77 329 -185 330 -201 0 -9 -47 9
-290 112 -102 43 -195 81 -208 85 -15 4 -21 12 -18 22 3 8 9 26 12 39 7 27 21
30 49 10z m4191 -91 c7 -19 14 -36 14 -38 0 -2 -44 -9 -97 -16 -54 -7 -142
-21 -196 -32 -55 -11 -101 -19 -102 -17 -6 6 328 138 348 138 11 0 23 -13 33
-35z m-4190 -18 c32 -13 122 -51 199 -84 77 -33 162 -68 188 -78 91 -33 40
-26 -109 16 -229 63 -364 109 -364 124 0 19 11 45 19 45 4 0 34 -11 67 -23z
m4223 -78 c6 -18 11 -48 11 -67 0 -31 -2 -34 -22 -28 -61 18 -159 28 -318 35
-105 4 -163 10 -145 14 140 33 182 42 284 57 172 26 177 26 190 -11z m-4187
-18 c68 -22 161 -50 208 -62 89 -24 132 -46 70 -36 -19 3 -124 18 -232 34
-132 18 -198 32 -198 40 0 15 18 63 24 63 3 0 60 -18 128 -39z m20 -81 c79
-11 157 -23 173 -27 28 -7 26 -8 -20 -14 -27 -4 -104 -10 -170 -14 -130 -8
-129 -9 -153 48 -14 34 -19 34 170 7z m3703 -7 c33 -8 86 -28 118 -44 103 -51
225 -119 235 -132 7 -8 1 -32 -21 -77 -45 -95 -149 -195 -258 -248 -46 -23
-100 -44 -120 -48 -36 -6 -37 -5 -44 33 -17 92 -79 181 -162 230 -23 13 -43
27 -43 31 0 3 11 20 25 38 42 55 66 123 66 187 l1 59 71 -7 c40 -4 99 -13 132
-22z m350 10 c76 -7 105 -18 105 -38 0 -13 -24 -70 -35 -83 -1 -1 -38 17 -81
40 -44 23 -113 55 -154 70 l-75 28 90 -5 c50 -3 117 -8 150 -12z m-194 -23
c71 -23 241 -109 246 -125 1 -5 -1 -17 -7 -25 -8 -12 -11 -12 -27 2 -17 15
-260 148 -293 161 -41 15 24 5 81 -13z m349 -45 c11 -55 11 -56 -21 -98 -41
-53 -159 -179 -179 -191 -12 -7 -11 -5 1 10 9 10 26 37 38 59 12 22 38 63 57
90 19 28 46 80 61 118 14 37 27 67 29 67 1 0 8 -25 14 -55z m-4357 -45 c49
-124 97 -263 93 -267 -6 -6 -22 21 -76 122 -23 44 -49 89 -56 100 -15 21 -18
65 -8 103 9 30 17 20 47 -58z m632 51 c6 0 10 -35 11 -79 0 -88 19 -137 78
-215 21 -27 36 -50 34 -52 -2 -1 -16 -9 -33 -18 -53 -27 -115 -88 -140 -138
-20 -39 -25 -63 -25 -124 0 -87 -1 -87 -94 -55 -131 45 -218 117 -290 239 -40
69 -70 154 -62 179 4 10 39 52 79 93 126 128 289 191 442 170z m-300 -11 c-3
-5 -11 -10 -16 -10 -5 0 -66 -22 -135 -50 -69 -27 -127 -50 -130 -50 -5 0 -21
39 -30 75 -6 25 -5 25 62 26 38 1 98 5 134 9 100 11 122 11 115 0z m-82 -76
c-50 -38 -104 -92 -130 -131 -9 -13 -18 -23 -22 -23 -9 0 -42 90 -36 100 3 4
15 10 27 13 13 3 61 21 108 41 47 20 89 36 93 36 5 0 -13 -16 -40 -36z m-206
-197 c24 -44 43 -80 41 -82 -2 -2 -38 37 -80 85 -61 68 -78 95 -78 118 0 63
11 66 42 10 16 -29 50 -88 75 -131z m4338 118 c4 -36 6 -67 4 -68 -51 -28
-249 -127 -254 -127 -4 0 31 39 78 88 48 48 101 106 119 130 18 23 35 42 39
42 4 0 11 -29 14 -65z m-4301 -230 c103 -111 106 -124 16 -56 -19 15 -70 49
-112 76 -72 47 -77 52 -77 87 -1 20 2 44 6 54 5 15 9 13 31 -12 13 -16 74 -83
136 -149z m4322 100 c3 -20 5 -37 3 -39 -5 -4 -281 -66 -293 -66 -13 0 257
139 271 140 7 0 15 -16 19 -35z m-4372 -135 c57 -39 118 -84 137 -101 l34 -30
-55 28 c-30 14 -95 43 -145 63 -89 36 -90 37 -93 73 -2 23 1 37 8 37 7 0 58
-32 114 -70z m4377 68 c0 -2 3 -24 5 -49 l6 -46 -153 -6 c-84 -4 -189 -7 -233
-6 l-81 0 45 15 c25 8 104 28 175 44 72 17 146 34 165 39 36 9 69 13 71 9z
m-4431 -119 c78 -29 240 -107 240 -115 0 -3 -12 -3 -27 2 -16 4 -84 19 -153
33 l-125 27 -3 37 c-2 20 0 37 5 37 4 0 33 -9 63 -21z m4440 -30 c0 -29 -2
-31 -29 -26 -16 3 -98 11 -182 17 -293 21 -266 30 114 38 l97 2 0 -31z m-205
-30 c66 -5 139 -12 163 -15 l42 -6 0 -49 c0 -27 -4 -49 -8 -49 -5 0 -46 11
-93 25 -46 15 -140 39 -209 55 -69 17 -147 37 -175 45 -50 14 -50 14 55 9 58
-3 159 -9 225 -15z m-379 -5 c61 -20 164 -87 251 -162 79 -68 173 -186 173
-218 0 -34 -53 -97 -106 -125 -97 -53 -300 -103 -448 -111 l-59 -3 2 80 c3 96
-25 169 -89 239 l-41 44 71 33 c105 48 180 141 180 223 0 20 8 20 66 0z
m-3780 -38 c110 -23 272 -70 284 -83 3 -3 -17 -2 -45 1 -27 4 -122 13 -209 21
-88 8 -160 16 -162 18 -1 1 -5 17 -9 35 -8 39 -13 39 141 8z m3984 -27 c119
-49 330 -208 330 -248 0 -10 -19 -37 -42 -60 l-43 -42 -6 35 c-11 67 -119 193
-244 286 -98 73 -99 72 5 29z m113 0 c88 -22 250 -69 256 -75 1 -1 -2 -35 -9
-74 l-12 -71 -51 48 c-67 63 -144 118 -221 159 -72 40 -70 40 37 13z m-4028
-59 c258 -21 404 -50 254 -50 -35 0 -147 -7 -248 -15 -102 -8 -188 -12 -192
-8 -10 12 -18 80 -11 88 4 4 25 4 47 0 22 -3 90 -10 150 -15z m450 -90 c12
-54 77 -123 153 -163 38 -20 77 -37 86 -37 14 0 13 -5 -7 -32 -54 -73 -60 -94
-54 -207 3 -58 9 -118 13 -133 5 -23 1 -29 -27 -44 -57 -30 -231 -26 -339 8
-84 27 -184 80 -227 120 -26 25 -28 52 -9 126 26 98 104 206 204 285 56 43
166 106 189 107 6 0 14 -14 18 -30z m-146 16 c-2 -2 -76 -16 -164 -31 -88 -14
-176 -30 -195 -35 -19 -4 -56 -11 -82 -14 -48 -6 -48 -6 -48 24 0 26 4 30 28
31 15 0 90 6 167 13 141 13 302 20 294 12z m-110 -50 c-6 -7 -347 -136 -357
-136 -9 0 -27 68 -20 75 2 2 59 13 128 25 69 12 145 25 170 30 53 9 85 12 79
6z m-54 -54 c-6 -5 -41 -30 -78 -56 -38 -27 -97 -75 -132 -107 -34 -32 -65
-59 -68 -59 -5 0 -27 90 -27 110 0 6 5 10 10 10 11 0 162 57 240 90 48 21 70
25 55 12z m-87 -110 c-23 -27 -63 -83 -87 -124 l-45 -76 -27 21 c-22 15 -26
24 -19 37 17 32 198 190 217 190 3 0 -15 -22 -39 -48z m47 0 c-47 -66 -84
-148 -91 -204 -4 -27 -10 -48 -14 -48 -4 0 -18 9 -31 19 l-24 20 29 53 c36 65
76 121 122 171 47 51 51 47 9 -11z m4139 11 c-11 -46 -29 -66 -93 -105 -58
-34 -195 -77 -207 -65 -3 3 16 12 43 21 50 17 220 132 235 160 15 26 29 18 22
-11z m-39 -135 c-11 -55 -15 -66 -28 -70 -7 -2 -61 -1 -122 2 l-110 5 70 17
c39 10 95 31 125 47 71 37 73 37 65 -1z m-69 -94 l42 -5 -11 -34 c-6 -19 -16
-35 -22 -35 -7 0 -61 11 -121 24 -60 14 -149 31 -197 38 -51 7 -81 15 -70 19
19 6 313 2 379 -7z m-4163 -42 c39 -27 99 -68 132 -91 56 -40 58 -43 27 -37
-44 8 -184 64 -198 79 -13 14 -46 97 -39 97 3 0 38 -22 78 -48z m3596 13 c47
-24 131 -125 166 -200 48 -105 65 -173 65 -269 0 -100 6 -94 -125 -126 -177
-43 -318 -32 -437 33 -63 34 -68 45 -39 71 62 56 85 218 44 307 l-21 47 78 4
c68 3 83 7 122 34 23 17 53 50 66 73 26 45 38 49 81 26z m261 -4 c93 -13 302
-59 311 -69 4 -4 3 -18 -2 -31 -10 -27 -3 -28 -144 23 -55 20 -134 46 -175 57
-67 19 -139 48 -85 35 11 -3 54 -10 95 -15z m-35 -35 c115 -33 312 -100 322
-110 2 -2 -3 -18 -12 -35 -15 -29 -17 -30 -38 -17 -12 8 -90 44 -172 79 -159
68 -235 104 -235 112 0 9 13 6 135 -29z m36 -77 c169 -73 249 -112 249 -121 0
-8 -27 -67 -35 -76 -1 -2 -58 38 -126 88 -238 174 -237 174 -88 109z m-3805
-13 c32 -13 94 -32 137 -42 43 -10 72 -21 65 -24 -15 -7 -234 2 -242 11 -12
12 -36 79 -28 79 5 0 35 -11 68 -24z m3833 -189 c28 -56 58 -123 65 -149 14
-46 13 -47 -13 -57 -14 -6 -41 -15 -58 -20 l-33 -10 0 86 c0 93 -24 191 -66
275 -33 65 -30 70 15 20 22 -23 62 -88 90 -145z m162 -14 c11 -12 7 -26 -21
-82 -19 -36 -39 -65 -45 -63 -5 1 -15 21 -21 45 -13 48 -52 129 -100 205 -19
29 -34 55 -34 57 0 7 206 -144 221 -162z m-3153 8 c67 -22 114 -24 152 -7 13
5 14 -6 11 -80 -3 -79 -1 -90 28 -149 17 -34 50 -80 73 -100 39 -36 40 -39 22
-52 -42 -32 -184 -93 -264 -114 -107 -29 -344 -35 -360 -9 -13 20 -13 205 1
310 13 113 38 190 89 278 l42 73 67 -64 c56 -53 80 -67 139 -86z m-648 105
c236 -7 232 -6 190 -17 -42 -11 -315 -49 -351 -49 -19 0 -29 8 -42 34 -16 35
-14 48 6 41 7 -2 95 -6 197 -9z m330 -31 c-13 -15 -119 -88 -198 -135 -23 -14
-78 -48 -122 -77 l-80 -52 -21 41 c-11 22 -19 41 -17 43 2 2 86 37 186 79 101
42 200 85 220 96 45 24 48 24 32 5z m-80 0 c0 -9 -347 -155 -368 -155 -8 0
-56 90 -50 95 2 1 68 10 146 20 79 10 167 23 195 30 60 15 77 17 77 10z m44
-67 c-11 -18 -73 -85 -187 -202 l-97 -101 -30 35 c-16 19 -29 42 -27 50 2 11
328 228 345 230 2 0 0 -6 -4 -12z m-4 -46 c0 -5 -30 -58 -66 -118 -37 -60 -82
-135 -101 -166 -20 -32 -38 -58 -42 -58 -3 0 -18 15 -32 33 l-26 33 128 134
c71 74 129 138 129 142 0 5 2 8 5 8 3 0 5 -4 5 -8z m-55 -228 c-20 -71 -39
-150 -42 -176 -3 -27 -9 -48 -14 -48 -9 0 -79 83 -79 94 0 4 26 46 58 94 32
48 69 106 82 129 13 24 25 41 27 39 2 -1 -13 -61 -32 -132z m51 -79 c-1 -188
1 -183 -53 -169 -29 8 -30 41 -3 149 26 101 52 195 55 195 1 0 1 -79 1 -175z
m2673 109 c28 -36 50 -113 57 -199 10 -124 -45 -305 -118 -388 l-33 -38 -110
44 c-60 24 -130 54 -155 67 -42 21 -210 179 -210 197 0 4 20 21 44 36 79 50
166 191 166 269 0 23 11 23 55 -3 31 -19 46 -21 105 -16 44 4 85 14 117 31 26
14 51 25 55 26 4 0 16 -12 27 -26z m735 4 c-4 -7 -23 -35 -42 -62 l-36 -49
-131 5 c-73 3 -141 10 -151 16 -17 10 -16 11 11 12 33 0 236 50 300 73 52 19
58 20 49 5z m-249 -228 c6 0 20 -8 32 -18 l22 -17 -30 -33 -30 -34 -114 79
c-198 137 -254 178 -255 185 0 4 82 -31 183 -78 100 -46 187 -84 192 -84z
m-116 115 c58 -8 142 -15 188 -15 l84 0 -38 -55 c-21 -30 -41 -55 -45 -55 -11
0 -302 132 -313 142 -6 6 -5 7 5 4 8 -3 62 -12 119 -21z m-1976 -57 c12 -95
87 -170 205 -204 28 -9 52 -20 52 -26 0 -5 -10 -24 -22 -41 -92 -132 -196
-212 -362 -276 -155 -60 -146 -59 -181 -4 -89 142 -120 302 -91 467 8 49 17
90 19 93 2 2 20 -4 40 -12 22 -9 67 -15 115 -15 70 0 86 4 143 34 35 18 67 34
70 35 3 0 9 -22 12 -51z m1954 -94 c120 -81 123 -85 73 -127 -27 -23 -22 -26
-163 131 -121 134 -137 159 -71 109 27 -20 100 -71 161 -113z m-197 44 c18
-29 66 -99 107 -156 l73 -103 -32 -29 c-18 -17 -38 -30 -44 -30 -6 0 -23 33
-36 73 -29 82 -91 253 -103 280 -15 34 4 16 35 -35z m-1037 -34 c52 -58 110
-79 213 -79 l81 0 -4 -45 c-6 -65 -50 -207 -81 -260 -48 -83 -216 -240 -257
-240 -18 0 -145 79 -184 114 -66 60 -170 239 -190 327 -5 24 -9 44 -8 46 2 1
31 6 67 12 93 15 165 54 240 131 53 54 67 63 75 51 6 -8 27 -34 48 -57z m1166
-61 c87 -95 102 -115 91 -128 -7 -8 -16 -15 -20 -15 -13 0 -190 247 -190 266
0 4 4 4 8 -1 5 -6 55 -61 111 -122z m-55 -228 c5 -16 -4 -27 -43 -53 -28 -17
-52 -32 -54 -32 -2 0 -7 62 -11 138 -4 75 -10 164 -14 198 -5 34 -6 67 -4 74
4 11 95 -227 126 -325z m-2379 259 c-33 -29 -260 -214 -302 -247 -8 -6 -27 3
-58 28 -25 21 -45 41 -45 45 0 3 44 23 98 44 53 20 151 66 217 101 66 35 122
64 125 64 3 0 -13 -16 -35 -35z m34 -26 c-93 -113 -240 -276 -253 -281 -12 -5
-76 26 -76 37 0 2 46 40 103 84 56 45 138 112 182 150 44 39 82 68 84 66 2 -2
-16 -27 -40 -56z m-38 -161 c-51 -100 -97 -186 -101 -191 -7 -7 -100 38 -100
48 0 2 24 28 53 57 54 57 200 227 220 259 6 11 13 17 16 14 3 -2 -37 -87 -88
-187z m2254 10 c4 -64 4 -134 0 -156 l-7 -40 -56 5 c-110 9 -108 7 -64 67 42
57 86 166 98 243 6 42 8 46 14 23 4 -14 11 -78 15 -142z m-2470 144 c-9 -9
-139 -31 -220 -36 -87 -7 -91 -6 -113 18 l-24 25 180 -1 c99 -1 179 -4 177 -6z
m75 0 c0 -12 -218 -101 -265 -107 -33 -5 -44 -2 -63 18 l-22 24 98 12 c76 9
184 35 250 61 1 1 2 -3 2 -8z m221 -117 c-22 -88 -41 -215 -41 -275 0 -44 -6
-47 -59 -20 -71 37 -72 32 26 226 48 96 89 169 91 161 2 -7 -6 -49 -17 -92z
m1630 -54 c18 -22 92 -94 166 -161 73 -67 133 -126 133 -131 0 -8 -82 -48 -98
-48 -4 0 -31 37 -60 83 -30 45 -77 117 -105 160 -83 127 -89 137 -78 137 5 0
24 -18 42 -40z m-1604 6 c-9 -24 12 -221 29 -269 9 -26 14 -50 11 -53 -3 -3
-24 4 -47 16 l-43 22 6 88 c8 111 29 220 40 213 5 -3 6 -11 4 -17z m1609 -93
c42 -65 96 -148 120 -184 24 -36 44 -70 44 -75 0 -9 -76 -44 -96 -44 -7 0 -21
26 -32 58 -25 66 -122 354 -122 359 0 13 19 -12 86 -114z m-1557 -8 c11 -38
36 -96 56 -129 19 -32 35 -61 35 -65 0 -12 -64 -31 -73 -22 -17 17 -46 152
-51 238 -5 95 0 92 33 -22z m1440 -241 l1 -111 -51 -11 c-95 -22 -92 -32 -48
140 21 84 46 189 55 233 9 44 19 85 23 90 7 11 18 -172 20 -341z m143 -65 c-9
-8 -113 -41 -117 -37 -2 2 -6 104 -9 228 l-6 225 70 -205 c38 -112 66 -207 62
-211z m-957 215 c-14 -65 -36 -159 -49 -209 l-23 -90 -43 2 c-72 3 -74 7 -36
63 38 56 63 105 127 257 23 57 44 101 46 99 2 -2 -8 -57 -22 -122z m-52 85
c-38 -65 -146 -182 -276 -298 l-27 -24 -60 18 c-33 10 -60 21 -60 25 0 4 31
19 69 34 103 40 222 122 299 203 37 39 68 72 70 72 2 1 -5 -13 -15 -30z m1170
-28 c64 -43 148 -87 201 -105 19 -7 19 -7 0 -20 -51 -35 -60 -32 -156 56 -154
139 -158 146 -45 69z m-873 -280 c33 -43 60 -81 60 -84 0 -11 -80 -18 -123
-12 l-45 7 -33 117 c-21 77 -34 146 -37 206 l-4 90 61 -122 c34 -68 89 -158
121 -202z m-18 138 c29 -30 87 -75 128 -99 l74 -43 -39 -34 c-21 -18 -44 -33
-50 -33 -28 0 -127 141 -195 279 -60 119 -64 140 -11 51 22 -36 64 -90 93
-121z m1053 110 c28 -10 69 -18 93 -19 48 0 53 -10 18 -34 -22 -14 -30 -14
-63 -2 -57 20 -154 71 -183 95 l-25 21 55 -21 c30 -12 78 -30 105 -40z m-1345
-47 c-54 -125 -77 -170 -114 -217 -17 -22 -32 -41 -32 -43 -1 -2 -29 4 -62 13
l-60 17 117 117 c65 64 132 138 150 164 18 27 35 47 37 44 2 -2 -14 -45 -36
-95z m149 -175 c17 -59 31 -110 31 -112 0 -3 -36 -5 -80 -5 -68 0 -80 3 -80
17 0 9 13 70 29 137 16 67 35 148 42 181 l13 60 7 -85 c4 -48 21 -134 38 -193z
m615 83 c-24 -96 -49 -177 -56 -181 -13 -8 -118 -22 -123 -17 -2 2 19 37 47
78 28 41 62 100 75 130 26 57 94 173 99 167 1 -1 -17 -81 -42 -177z m-850 139
c-51 -57 -190 -140 -311 -185 -57 -22 -67 -23 -96 -10 l-32 13 45 21 c25 11
72 30 105 42 109 40 209 84 255 112 54 33 59 34 34 7z m723 -211 c-74 -118
-84 -126 -149 -132 -32 -3 -58 -2 -58 2 0 10 243 211 249 206 2 -2 -17 -36
-42 -76z"/>
<path d="M2297 4320 c-78 -62 -153 -208 -159 -310 l-3 -45 55 -5 c34 -3 81
-18 123 -38 38 -19 69 -32 71 -30 42 66 107 117 169 132 15 3 27 13 27 22 0
45 -90 167 -177 239 -37 30 -70 55 -74 55 -3 0 -18 -9 -32 -20z m58 -20 c8
-13 -4 -90 -13 -90 -4 0 -8 23 -10 50 -2 46 8 64 23 40z m-37 -94 c-3 -30 -4
-30 -20 18 -14 39 -15 52 -6 64 10 12 14 9 21 -18 4 -18 7 -46 5 -64z m62 -12
c-22 -77 -36 -98 -26 -39 11 64 28 115 37 110 4 -3 -1 -35 -11 -71z m-79 -31
c26 -59 10 -54 -28 9 -24 41 -29 56 -20 67 9 11 13 9 20 -10 5 -13 17 -43 28
-66z m129 60 c0 -26 -32 -113 -42 -113 -11 0 -11 1 9 70 16 57 33 79 33 43z
m-168 -68 c15 -25 24 -45 20 -45 -16 0 -74 69 -68 79 12 19 20 13 48 -34z
m208 28 c0 -10 -11 -36 -25 -58 -19 -32 -24 -36 -25 -19 0 29 28 94 40 94 6 0
10 -8 10 -17z m15 -84 c-10 -21 -24 -39 -32 -39 -7 0 -13 2 -13 5 0 9 31 68
43 84 20 24 21 -8 2 -50z m-253 24 c26 -25 37 -53 21 -53 -16 1 -63 50 -63 65
0 22 10 19 42 -12z m298 -20 c0 -10 -14 -34 -30 -53 -37 -43 -38 -33 -4 26 28
48 34 53 34 27z m-320 -25 c26 -19 41 -48 24 -48 -19 0 -64 37 -64 52 0 23 5
23 40 -4z m198 -3 c46 -39 48 -66 7 -109 -19 -21 -35 -42 -35 -47 0 -11 -100
39 -112 56 -4 6 -8 25 -8 43 0 74 88 108 148 57z m147 -26 c-4 -5 -13 -9 -22
-9 -13 0 -13 3 -3 15 13 15 35 11 25 -6z m-353 -28 c24 -12 44 -39 35 -47 -6
-6 -77 47 -77 57 0 6 3 9 8 7 4 -2 19 -10 34 -17z"/>
<path d="M3056 4285 c-105 -63 -225 -166 -251 -215 -13 -25 -12 -26 34 -48 26
-12 77 -48 113 -81 l65 -60 54 20 c42 16 71 20 133 17 l78 -3 -4 102 c-4 90
-8 110 -37 165 -34 69 -92 138 -114 138 -7 0 -39 -16 -71 -35z m60 -12 c-3
-10 -8 -35 -12 -56 -9 -54 -21 -54 -29 0 -6 39 -4 49 11 60 25 18 36 16 30 -4z
m53 -14 l23 -31 -33 -34 c-36 -37 -53 -43 -46 -16 3 9 10 38 17 65 7 26 13 47
14 47 1 0 13 -14 25 -31z m-110 -59 c14 -67 14 -80 -4 -80 -29 0 -59 105 -34
121 23 15 27 11 38 -41z m-57 -40 c19 -58 9 -64 -33 -19 -28 30 -29 33 -13 50
10 11 20 19 24 19 3 0 13 -22 22 -50z m215 24 c4 -12 -95 -89 -104 -80 -9 8
78 97 91 93 5 -2 11 -8 13 -13z m-259 -58 c25 -27 28 -37 18 -45 -12 -10 -35
1 -80 40 -9 8 10 39 24 39 4 0 21 -15 38 -34z m285 10 c4 -10 -11 -25 -42 -45
-53 -34 -61 -37 -61 -18 0 14 70 76 86 77 7 0 14 -6 17 -14z m-331 -52 c38
-27 45 -38 29 -48 -12 -8 -93 53 -86 64 9 14 15 13 57 -16z m193 -8 c22 -22
45 -81 45 -118 0 -11 -8 -18 -19 -18 -11 0 -39 -9 -64 -19 l-45 -19 -41 42
c-40 41 -40 42 -25 71 42 81 103 107 149 61z m155 7 c0 -17 -17 -31 -57 -52
-40 -20 -43 -20 -43 -4 0 10 16 27 38 39 39 23 62 29 62 17z m-374 -44 c60
-41 50 -48 -15 -11 -28 16 -48 32 -44 35 9 10 10 10 59 -24z m374 -22 c0 -18
-10 -28 -40 -42 -42 -19 -56 -16 -47 9 5 11 67 52 85 56 1 0 2 -11 2 -23z m-3
-73 c-3 -3 -16 -4 -29 -2 l-23 5 25 10 c23 10 41 1 27 -13z"/>
<path d="M3734 4030 c-73 -21 -91 -30 -172 -83 -40 -27 -65 -51 -69 -67 -4
-15 4 -53 20 -100 14 -41 28 -89 32 -106 l6 -30 88 4 c80 4 95 2 147 -22 32
-15 66 -34 76 -43 25 -23 41 -6 75 80 24 61 28 86 28 167 -1 95 -24 195 -49
212 -19 13 -119 6 -182 -12z m146 -5 c0 -6 -27 -37 -60 -70 -33 -33 -60 -56
-60 -52 0 7 17 36 66 114 14 22 54 28 54 8z m-117 -75 c-56 -103 -71 -88 -23
24 14 33 25 46 40 46 19 0 18 -5 -17 -70z m162 29 c7 -27 11 -25 -120 -81 -14
-7 -11 0 12 24 17 18 44 48 59 65 30 35 39 33 49 -8z m-215 -30 c-23 -57 -36
-76 -46 -67 -12 13 26 116 44 120 9 3 18 3 20 2 1 -1 -7 -26 -18 -55z m-54 5
c-4 -15 -10 -39 -13 -55 -3 -16 -12 -29 -20 -29 -11 0 -12 9 -7 38 8 45 21 72
35 72 7 0 9 -10 5 -26z m-56 -26 c0 -29 -22 -87 -37 -99 -15 -13 -15 -10 -9
36 8 50 20 75 37 75 5 0 9 -6 9 -12z m338 -15 c-3 -18 -149 -76 -177 -71 -16
4 142 86 167 87 8 1 12 -7 10 -16z m-402 -35 c-3 -13 -6 -29 -6 -35 0 -19 -18
-15 -22 5 -4 19 12 52 26 52 4 0 6 -10 2 -22z m412 -20 c-2 -7 -40 -25 -84
-40 -95 -32 -94 -31 -94 -15 0 8 32 25 73 40 81 29 111 33 105 15z m-220 -11
c24 -29 24 -64 -2 -115 -14 -28 -29 -53 -33 -55 -5 -3 -35 -7 -67 -8 l-59 -4
-15 59 -15 60 29 24 c58 48 139 68 162 39z m222 -37 c0 -14 -28 -26 -107 -44
-85 -19 -90 -19 -76 -5 10 10 146 57 171 58 6 1 12 -3 12 -9z m-12 -62 c-3
-21 -10 -24 -73 -30 -38 -4 -83 -9 -98 -12 -20 -4 -27 -2 -25 6 4 10 137 49
191 57 5 0 7 -9 5 -21z m-19 -63 c-19 -19 -182 -34 -193 -17 -4 7 11 13 41 17
27 4 53 8 58 10 6 2 32 4 60 4 44 1 48 -1 34 -14z m-16 -56 c-8 -30 -29 -34
-58 -11 -23 18 -24 21 -8 25 10 3 30 5 45 6 22 1 25 -2 21 -20z"/>
<path d="M1563 3964 c-40 -18 -77 -263 -53 -349 14 -50 15 -51 84 -30 63 19
142 19 196 0 23 -8 44 -15 46 -15 2 0 4 39 4 88 0 88 16 139 56 180 8 8 13 19
11 26 -4 13 -80 51 -157 78 -56 19 -165 32 -187 22z m71 -36 c10 -39 6 -44
-14 -19 -23 27 -25 41 -6 41 7 0 16 -10 20 -22z m59 -48 c8 -33 11 -62 7 -65
-11 -7 -15 0 -34 64 -19 66 -19 61 -2 61 8 0 19 -23 29 -60z m-89 17 c35 -46
32 -53 -9 -21 -19 14 -35 33 -35 40 0 23 18 16 44 -19z m130 2 c3 -17 6 -46 5
-63 -1 -31 -1 -31 -14 9 -16 47 -19 85 -6 85 5 0 11 -14 15 -31z m46 -46 c0
-67 -15 -61 -23 10 -3 36 -1 47 9 47 10 0 14 -15 14 -57z m45 36 c10 -15 -5
-120 -16 -114 -12 8 -12 125 0 125 6 0 13 -5 16 -11z m-216 -48 c29 -22 48
-42 43 -44 -10 -7 -99 52 -106 71 -9 21 8 14 63 -27z m271 14 c0 -7 -7 -18
-15 -25 -13 -11 -15 -8 -15 18 0 24 4 30 15 26 8 -4 15 -12 15 -19z m-290 -51
c22 -15 38 -29 35 -32 -6 -6 -95 41 -95 50 0 14 20 8 60 -18z m-14 -35 c19
-11 34 -25 34 -30 0 -11 -75 26 -85 41 -10 17 16 11 51 -11z m205 -2 c33 -22
34 -25 37 -96 3 -67 1 -73 -15 -66 -10 4 -44 9 -76 12 -65 7 -83 23 -94 86
-12 75 76 113 148 64z m-208 -42 c37 -19 53 -44 20 -30 -10 4 -30 12 -45 17
-16 5 -28 17 -28 25 0 8 3 13 8 11 4 -2 24 -12 45 -23z m1 -45 c25 -10 46 -23
46 -28 0 -16 -95 14 -98 32 -4 20 -3 20 52 -4z m21 -55 l30 -13 -31 -1 c-16
-1 -39 6 -50 14 -19 14 -19 14 1 14 11 0 34 -6 50 -14z"/>
<path d="M2615 3892 c-75 -35 -129 -121 -141 -225 l-7 -56 -67 72 c-38 40 -91
85 -120 101 -69 38 -157 35 -218 -7 -59 -41 -96 -116 -95 -193 1 -85 19 -158
59 -232 19 -34 34 -65 34 -69 0 -3 -21 14 -47 38 -105 98 -169 131 -254 130
-127 0 -210 -91 -196 -212 9 -76 47 -165 92 -216 28 -33 34 -44 20 -40 -150
46 -277 30 -354 -43 -51 -50 -65 -138 -35 -227 36 -105 110 -165 274 -220 8
-3 -30 -13 -85 -23 -111 -19 -173 -43 -223 -85 -52 -44 -80 -96 -88 -163 -6
-53 -3 -65 20 -109 50 -91 159 -145 297 -147 l87 -1 -57 -60 c-74 -79 -113
-160 -119 -246 -7 -107 28 -178 110 -220 78 -40 228 -16 316 49 37 28 39 25
13 -26 -45 -89 -65 -269 -37 -335 28 -67 142 -137 224 -137 85 0 165 67 249
208 30 51 56 92 57 90 2 -2 -2 -43 -7 -92 -20 -173 44 -340 148 -387 48 -22
152 -25 198 -5 75 32 143 143 159 258 21 158 15 151 52 66 83 -191 160 -268
269 -268 49 0 66 5 103 31 95 65 159 229 125 321 -4 13 -11 36 -15 52 l-7 29
32 -27 c106 -89 270 -122 348 -70 55 36 96 127 86 192 -10 70 -59 164 -113
217 -46 45 -46 46 -17 39 17 -4 39 -10 51 -15 11 -4 61 -10 111 -14 79 -6 95
-5 134 13 60 28 76 43 94 85 44 106 -14 229 -153 322 -65 44 -65 44 -36 50
119 28 203 66 265 122 51 47 69 81 69 135 -1 124 -116 226 -266 236 -41 2 -74
7 -74 11 0 3 25 22 56 41 30 19 80 58 109 87 83 81 94 154 37 234 -61 85 -145
109 -303 86 -57 -9 -105 -14 -106 -13 -1 1 11 17 28 36 50 57 85 112 104 162
31 84 0 190 -72 245 -32 25 -45 28 -109 28 -66 0 -75 -3 -125 -37 -30 -21 -76
-59 -103 -85 -27 -26 -47 -40 -43 -30 62 166 41 358 -45 421 -43 31 -135 34
-192 6 -49 -23 -113 -95 -143 -160 -23 -50 -33 -50 -33 -2 -1 107 -51 212
-128 266 -55 39 -137 46 -197 18z m163 -21 c89 -46 133 -129 140 -267 6 -117
-10 -194 -41 -194 -21 0 -22 4 -24 120 -2 166 -29 237 -99 266 -69 29 -153
-21 -178 -107 -21 -70 -28 -156 -18 -216 7 -43 6 -53 -6 -58 -25 -9 -33 8 -49
111 -17 112 -13 163 18 235 23 52 86 115 123 122 51 10 99 6 134 -12z m-523
-97 c45 -18 145 -111 188 -173 17 -25 36 -71 43 -105 19 -88 18 -98 -8 -94
-17 2 -30 20 -55 81 -41 98 -92 175 -136 205 -64 43 -171 18 -210 -48 -39 -65
-9 -253 53 -340 17 -24 19 -34 10 -45 -17 -20 -23 -15 -73 68 -51 84 -64 118
-77 204 -29 181 111 312 265 247z m445 -13 c0 -11 3 -26 6 -35 3 -9 2 -16 -4
-16 -14 0 -44 49 -37 60 11 17 35 11 35 -9z m69 6 c8 -11 5 -19 -13 -36 -26
-24 -32 -21 -34 22 -1 20 3 27 17 27 10 0 24 -6 30 -13z m539 -30 c92 -88 76
-349 -31 -491 -14 -19 -15 -19 -51 3 -37 23 -44 35 -26 46 22 14 84 123 102
178 23 74 23 122 0 167 -60 121 -198 45 -306 -167 -14 -29 -26 -60 -26 -68 0
-11 -7 -15 -22 -13 -20 3 -23 8 -21 43 4 57 83 213 138 269 57 59 75 66 152
63 52 -2 67 -7 91 -30z m-643 -23 c35 -45 26 -54 -19 -19 -29 22 -34 30 -25
41 15 18 13 19 44 -22z m141 4 c8 -12 -42 -58 -63 -58 -19 0 -16 7 14 40 29
33 38 36 49 18z m-136 -70 c0 -12 -23 -10 -53 5 -26 11 -34 27 -21 40 7 7 74
-34 74 -45z m-436 10 c-16 -74 -20 -77 -43 -25 -12 27 -21 51 -21 53 0 2 16 4
36 4 35 0 35 -1 28 -32z m43 -48 c-7 -26 -20 -46 -29 -48 -17 -3 -17 -3 4 82
8 34 11 37 24 25 12 -12 12 -22 1 -59z m551 47 c2 -9 -9 -22 -26 -31 -27 -14
-31 -14 -36 0 -4 10 3 23 16 35 26 21 42 20 46 -4z m422 8 c0 -8 -9 -29 -19
-46 l-20 -32 -6 29 c-4 16 -8 34 -10 41 -5 16 5 23 32 23 14 0 23 -6 23 -15z
m-1090 -7 c0 -7 7 -26 15 -42 9 -16 14 -30 13 -32 -2 -1 -22 9 -46 23 -41 24
-42 26 -26 44 19 22 44 25 44 7z m1020 -15 c0 -10 3 -36 6 -58 5 -27 3 -37 -3
-30 -15 15 -35 83 -28 95 10 16 25 12 25 -7z m-431 -35 c6 -17 11 -66 11 -109
l0 -79 -44 0 c-52 0 -56 7 -56 90 0 119 59 184 89 98z m551 -19 c0 -15 -27
-29 -58 -29 -15 0 -8 31 16 68 l15 24 13 -24 c7 -12 13 -30 14 -39z m-675 39
c26 -12 32 -23 16 -33 -14 -8 -61 16 -61 32 0 16 11 17 45 1z m-299 -12 c6
-16 -25 -76 -38 -76 -11 0 -10 18 4 57 13 35 25 42 34 19z m814 -5 c0 -5 3
-23 6 -40 4 -20 2 -31 -4 -31 -15 0 -41 51 -35 68 5 14 33 17 33 3z m-990 -32
c28 -17 49 -33 46 -36 -2 -3 -30 2 -60 11 -44 13 -56 21 -56 36 0 27 11 25 70
-11z m680 11 c0 -16 -26 -40 -44 -40 -11 0 -6 36 6 48 18 18 38 14 38 -8z
m-215 -12 c32 -14 34 -40 3 -34 -13 3 -29 5 -35 5 -15 1 -18 41 -3 41 5 0 21
-5 35 -12z m-252 -10 c5 -17 -22 -58 -39 -58 -18 0 -17 4 1 40 16 32 31 38 38
18z m743 -24 c13 -19 14 -28 5 -37 -16 -16 -54 23 -45 46 9 24 21 21 40 -9z
m-973 -10 c44 -15 63 -34 35 -34 -33 0 -88 22 -88 35 0 18 -3 18 53 -1z m1165
-6 c-2 -18 -11 -24 -35 -26 -27 -3 -33 0 -33 17 0 14 8 21 28 24 15 2 31 5 35
6 5 0 7 -9 5 -21z m-969 -89 c17 -32 31 -63 31 -68 0 -9 -83 -41 -106 -41 -15
0 -45 63 -55 115 -8 46 3 72 34 84 29 12 56 -13 96 -90z m504 81 c5 -20 -17
-40 -42 -40 -18 0 -12 38 7 49 24 15 29 14 35 -9z m-443 -14 c0 -7 -9 -21 -20
-31 -16 -14 -23 -16 -32 -7 -9 9 -6 18 12 37 23 24 40 25 40 1z m248 2 c3 -14
-3 -18 -27 -18 -31 0 -47 13 -36 31 11 16 59 6 63 -13z m570 -6 c3 -23 -55
-139 -81 -161 -11 -8 -23 -8 -51 4 -42 18 -44 26 -14 68 68 100 139 143 146
89z m-132 -31 c-9 -14 -33 -14 -41 -1 -3 6 -3 20 0 31 l7 21 20 -20 c11 -11
17 -25 14 -31z m-903 0 c15 -15 -12 -23 -53 -16 -29 5 -40 12 -40 25 0 16 5
17 43 8 23 -5 46 -13 50 -17z m225 -43 c-40 -36 -54 -11 -16 29 21 22 23 23
29 6 5 -12 0 -24 -13 -35z m882 38 c0 -8 -4 -18 -10 -21 -13 -8 -52 14 -45 26
10 15 55 11 55 -5z m427 -6 c46 -28 83 -88 90 -149 5 -45 2 -59 -28 -119 -33
-66 -107 -149 -182 -206 -38 -29 -38 -29 -58 -10 -19 20 -19 20 27 54 60 46
128 130 149 185 33 85 -8 165 -85 165 -57 0 -170 -61 -239 -131 -63 -62 -70
-66 -89 -47 -23 23 159 211 253 261 42 23 123 21 162 -3z m-1064 -3 c8 -22 -8
-38 -34 -34 -15 3 -25 12 -27 25 -3 18 2 22 26 22 17 0 32 -6 35 -13z m197 2
c0 -25 -20 -47 -40 -42 -25 7 -27 40 -2 46 31 8 42 7 42 -4z m207 -32 c-2 -7
-13 -10 -23 -9 -25 5 -26 6 -18 25 5 13 10 14 26 6 10 -6 17 -16 15 -22z
m-1180 -23 c53 -26 205 -155 211 -180 2 -8 -4 -17 -13 -20 -10 -4 -36 11 -74
44 -141 123 -236 152 -300 93 -26 -24 -31 -37 -31 -75 0 -71 33 -145 93 -207
28 -31 63 -62 76 -70 21 -14 22 -17 10 -37 -18 -28 -30 -28 -77 2 -97 61 -168
176 -179 291 -3 39 1 59 19 94 28 55 60 79 118 90 55 10 80 6 147 -25z m289
26 c15 0 24 -6 24 -15 0 -20 -76 -21 -83 -1 -7 18 3 28 21 21 7 -3 25 -5 38
-5z m1098 -8 c2 -4 1 -14 -3 -21 -7 -10 -13 -11 -30 -2 -12 7 -19 16 -16 22 7
11 42 12 49 1z m-831 -39 c-20 -15 -43 -17 -43 -4 0 6 10 17 22 25 28 20 48
-1 21 -21z m452 2 c126 -27 196 -56 304 -128 122 -82 299 -248 371 -350 52
-73 87 -166 136 -357 24 -96 26 -116 21 -245 -8 -224 -80 -468 -178 -601 -108
-149 -272 -288 -390 -332 -69 -25 -245 -59 -356 -68 -136 -11 -320 20 -447 75
-141 62 -251 135 -346 231 -98 98 -207 235 -241 303 -37 72 -78 225 -85 315
-9 124 17 309 62 442 65 190 123 285 268 438 68 71 105 99 195 151 102 58 232
109 336 130 68 15 274 12 350 -4z m145 -1 c0 -11 -5 -14 -16 -10 -9 3 -18 6
-20 6 -3 0 -2 5 1 10 10 16 35 12 35 -6z m199 -8 c7 -9 8 -17 2 -20 -14 -9
-41 4 -41 20 0 18 24 18 39 0z m-1038 -17 c-28 -23 -54 -21 -59 4 -3 14 4 17
40 17 l43 -1 -24 -20z m1439 -11 c-1 -7 -7 -24 -15 -38 -15 -26 -19 -12 -9 28
7 23 24 31 24 10z m-1850 -5 c0 -5 3 -19 7 -32 l6 -24 -31 23 c-17 13 -29 27
-26 32 6 10 44 11 44 1z m54 -9 c9 -24 7 -74 -3 -74 -13 0 -17 9 -25 53 -5 29
-4 37 7 37 8 0 18 -7 21 -16z m406 -19 c0 -7 -14 -18 -31 -25 -26 -11 -32 -11
-40 1 -14 22 -11 27 19 43 28 15 52 6 52 -19z m958 22 c15 -17 -10 -49 -32
-41 -17 7 -19 14 -10 38 7 19 28 21 42 3z m382 -28 c-13 -45 -20 -48 -20 -7 0
36 7 51 21 43 4 -3 3 -19 -1 -36z m109 27 c9 -11 4 -19 -25 -41 -19 -15 -37
-25 -40 -22 -8 8 29 77 42 77 6 0 17 -6 23 -14z m-149 -41 c0 -19 -4 -35 -9
-35 -11 0 -24 48 -16 60 13 21 25 8 25 -25z m-1800 10 c7 -9 11 -17 9 -19 -7
-7 -49 13 -49 24 0 15 26 12 40 -5z m142 -15 c-4 -41 -19 -44 -24 -5 -3 28 -1
35 11 32 10 -2 15 -12 13 -27z m1628 -42 c0 -5 -4 -8 -10 -8 -14 0 -32 39 -24
52 6 10 33 -25 34 -44z m-1583 26 c2 -5 -3 -19 -12 -29 -14 -19 -14 -18 -15
13 0 31 18 42 27 16z m1781 -6 c-2 -18 -11 -24 -35 -26 -40 -4 -42 8 -5 30 36
23 44 22 40 -4z m-1955 -10 c32 -12 37 -32 5 -22 -52 16 -68 24 -68 35 0 7 7
8 18 4 9 -4 29 -12 45 -17z m1717 -42 c-7 -7 -17 -3 -33 12 -19 19 -20 24 -7
32 20 13 57 -27 40 -44z m-1503 28 c4 -13 -24 -51 -32 -43 -10 10 6 60 18 56
6 -2 12 -8 14 -13z m-87 -21 c14 -10 37 -28 51 -40 14 -13 34 -30 45 -38 18
-13 18 -15 -16 -52 -19 -21 -37 -40 -39 -43 -5 -8 -102 102 -111 126 -22 55
19 82 70 47z m1715 6 c13 -21 -6 -57 -54 -104 -73 -71 -78 -72 -113 -38 l-29
30 67 61 c49 45 75 62 95 62 15 0 31 -5 34 -11z m-1836 -13 c42 -15 28 -27
-22 -19 -22 3 -37 11 -37 19 0 17 13 17 59 0z m228 -33 c-22 -22 -29 0 -9 28
15 22 17 22 20 5 2 -10 -3 -25 -11 -33z m1437 25 c8 -12 13 -25 10 -30 -8 -12
-44 21 -44 39 0 20 17 16 34 -9z m266 2 c0 -12 -27 -12 -55 0 -16 7 -13 9 18
9 20 1 37 -3 37 -9z m-290 -57 c0 -7 -6 -13 -14 -13 -20 0 -37 25 -30 44 6 16
8 16 25 0 11 -9 19 -23 19 -31z m-1360 28 c0 -13 -29 -35 -37 -28 -7 8 15 37
28 37 5 0 9 -4 9 -9z m1620 -1 c8 -5 12 -12 8 -15 -9 -9 -48 4 -48 16 0 12 21
11 40 -1z m-1866 -20 c8 -8 -1 -10 -33 -8 -27 2 -46 9 -49 17 -4 11 3 13 33 8
21 -4 43 -11 49 -17z m1846 -30 c0 -14 -14 -12 -28 2 -19 19 -14 30 8 18 11
-6 20 -15 20 -20z m-1820 -9 c0 -12 -51 -29 -67 -24 -7 3 -13 11 -13 19 0 10
12 14 40 14 22 0 40 -4 40 -9z m1780 -6 c7 -9 10 -18 7 -22 -8 -7 -37 15 -37
28 0 14 16 11 30 -6z m-1753 -32 c5 -15 -34 -36 -53 -29 -21 8 -17 21 9 34 25
12 39 11 44 -5z m1720 1 c9 -25 -13 -40 -26 -16 -10 19 -6 32 11 32 5 0 11 -7
15 -16z m-37 -41 c0 -13 -3 -13 -15 -3 -8 7 -12 16 -9 21 8 13 24 1 24 -18z
m-1650 7 c0 -12 -40 -33 -48 -25 -4 4 2 13 12 21 23 16 36 18 36 4z m1615 -20
c3 -5 1 -10 -4 -10 -6 0 -11 5 -11 10 0 6 2 10 4 10 3 0 8 -4 11 -10z m-1600
-19 c-3 -6 -14 -11 -23 -11 -15 1 -15 2 2 15 21 16 32 13 21 -4z m2071 4 c77
-23 144 -100 144 -166 0 -28 -40 -97 -72 -124 -90 -77 -203 -143 -281 -164
-35 -9 -39 -8 -46 12 -5 12 -7 25 -5 28 2 4 54 31 116 62 190 93 250 180 179
259 -26 29 -35 33 -97 36 -79 4 -171 -16 -246 -54 l-49 -25 -19 23 c-11 13
-19 26 -20 30 0 10 78 54 120 67 93 29 209 36 276 16z m-2312 -45 c85 -22 156
-56 156 -77 0 -13 -14 -18 -35 -13 -5 1 -44 11 -85 22 -169 45 -320 -8 -320
-111 0 -98 106 -201 250 -242 54 -15 62 -20 51 -37 -6 -11 -21 -11 -72 -2
-168 30 -282 132 -296 265 -10 93 19 146 103 189 62 32 140 34 248 6z m2202
-46 c-3 -9 -6 -22 -6 -30 0 -8 -4 -14 -10 -14 -5 0 -10 14 -10 30 0 21 5 30
16 30 11 0 14 -5 10 -16z m47 -19 c-25 -52 -42 -44 -27 13 4 13 14 22 25 22
18 0 18 -2 2 -35z m-93 1 c0 -29 -19 -44 -31 -25 -16 25 -10 49 11 49 15 0 20
-7 20 -24z m171 8 c10 -13 10 -17 -2 -25 -8 -5 -19 -9 -26 -9 -6 0 -18 -3 -27
-6 -13 -5 -14 -2 -5 25 12 34 38 41 60 15z m-231 -13 c0 -5 3 -16 6 -25 4 -10
1 -16 -9 -16 -14 0 -27 20 -27 41 0 5 7 9 15 9 8 0 15 -4 15 -9z m-2200 -35
c0 -18 -6 -39 -14 -45 -11 -9 -15 -4 -24 28 -11 44 -8 51 20 51 14 0 18 -8 18
-34z m67 -2 c-7 -44 -9 -46 -31 -38 -10 4 -16 18 -16 40 0 30 3 34 26 34 25 0
26 -2 21 -36z m2093 -7 c0 -12 -6 -17 -17 -15 -22 4 -30 38 -12 49 15 9 29 -7
29 -34z m-2026 24 c3 -5 3 -23 0 -40 -5 -24 -12 -31 -30 -31 -26 0 -27 2 -18
49 6 30 35 44 48 22z m-191 -34 c12 -38 3 -44 -38 -24 -39 19 -44 31 -17 46
26 16 44 9 55 -22z m247 19 c0 -2 -7 -20 -15 -40 -17 -39 -40 -50 -30 -13 4
12 9 30 11 40 4 14 34 26 34 13z m1915 -17 c8 -23 1 -34 -14 -24 -13 8 -15 45
-2 45 5 0 13 -9 16 -21z m353 -1 c-2 -19 -8 -22 -33 -20 -54 5 -63 13 -30 28
47 21 67 18 63 -8z m-2228 5 c0 -22 -26 -73 -37 -73 -11 0 -10 7 2 36 8 20 15
38 15 40 0 2 5 4 10 4 6 0 10 -3 10 -7z m2090 -18 c0 -21 -45 -60 -104 -88
-88 -43 -91 -43 -106 3 -16 50 -12 55 66 80 74 24 144 26 144 5z m-2400 -47
c0 -4 -8 -8 -17 -8 -10 0 -28 -3 -40 -6 -19 -5 -23 -2 -23 18 0 14 3 27 6 31
8 7 74 -24 74 -35z m2479 26 c31 -7 44 -34 16 -34 -17 0 -75 27 -75 35 0 7 21
6 59 -1z m-2271 -37 c34 -11 62 -23 62 -26 0 -3 -9 -28 -19 -56 -15 -38 -24
-49 -38 -47 -45 9 -135 69 -153 102 -8 15 -6 24 10 40 23 23 36 22 138 -13z
m2237 1 c26 -12 32 -23 15 -33 -11 -7 -60 23 -60 36 0 12 14 11 45 -3z m-2405
-18 c0 -12 -65 -40 -91 -40 -34 0 -20 28 19 37 52 13 72 13 72 3z m2365 -10
c15 -16 16 -23 6 -33 -10 -9 -15 -8 -27 7 -29 40 -12 62 21 26z m-41 -33 c8
-12 7 -20 -2 -29 -10 -10 -15 -10 -22 2 -14 21 -12 52 2 48 6 -2 16 -12 22
-21z m-2314 4 c0 -5 -14 -21 -32 -35 -24 -18 -36 -22 -45 -14 -20 17 -16 24
25 41 45 19 52 20 52 8z m2264 -28 c5 -17 3 -29 -6 -34 -16 -10 -25 -2 -33 34
-6 23 -4 27 13 27 13 0 22 -9 26 -27z m-2234 -4 c0 -14 -32 -69 -41 -69 -4 0
-13 7 -20 16 -11 14 -10 20 14 40 30 26 47 30 47 13z m2176 -15 c7 -27 -7 -50
-25 -40 -12 8 -15 49 -4 59 13 13 23 7 29 -19z m-2126 -22 c0 -21 -27 -62 -41
-62 -18 0 -20 29 -4 54 20 30 45 34 45 8z m45 -13 c4 -5 1 -23 -5 -40 -14 -32
-12 -31 -34 -23 -13 5 -13 9 1 40 17 35 27 41 38 23z m46 -22 c-1 -4 -1 -16
-1 -27 0 -19 -25 -38 -35 -28 -9 8 17 69 27 66 5 -2 9 -7 9 -11z m2346 -72
c136 -40 216 -193 149 -283 -68 -93 -230 -161 -383 -162 -76 0 -88 7 -79 44 5
20 14 24 73 29 191 18 333 94 333 179 0 41 -41 91 -90 110 -51 19 -180 23
-249 7 -50 -11 -58 -7 -63 35 -3 26 1 30 37 42 57 17 211 17 272 -1z m-2375
-80 c3 -3 3 -17 0 -30 -4 -22 -10 -25 -48 -25 -57 0 -167 -26 -218 -52 -95
-47 -140 -124 -112 -191 31 -76 115 -103 289 -94 112 7 107 8 111 -34 2 -24
-96 -53 -184 -53 -96 -1 -157 17 -227 67 -130 92 -99 273 59 353 73 37 309 79
330 59z m2178 -41 c0 -17 -5 -24 -20 -24 -14 0 -20 7 -20 24 0 23 17 38 33 29
4 -2 7 -15 7 -29z m50 6 c0 -20 -5 -30 -15 -30 -10 0 -15 10 -15 30 0 20 5 30
15 30 10 0 15 -10 15 -30z m60 13 c0 -26 -16 -47 -29 -39 -6 4 -11 18 -11 32
0 17 5 24 20 24 12 0 20 -7 20 -17z m34 -17 c-3 -14 -10 -26 -15 -26 -11 0
-11 3 1 36 13 33 23 26 14 -10z m56 6 c-1 -12 -40 -55 -46 -49 -9 9 26 68 36
62 6 -4 10 -9 10 -13z m-260 -17 c0 -18 -5 -25 -20 -25 -15 0 -20 7 -20 25 0
18 5 25 20 25 15 0 20 -7 20 -25z m308 -18 c3 -13 -3 -17 -27 -17 -29 0 -30 2
-19 20 15 24 41 22 46 -3z m-2508 -41 c0 -26 -5 -35 -22 -39 -27 -7 -26 -8
-34 30 -6 32 -7 32 49 42 4 0 7 -14 7 -33z m72 29 c2 -3 3 -18 0 -35 -3 -24
-9 -30 -28 -30 -21 0 -24 5 -24 35 0 30 3 35 23 35 13 0 26 -2 29 -5z m2312
-11 c24 -9 19 -39 -8 -57 -21 -14 -164 -47 -203 -47 -11 0 -13 11 -11 47 3 44
5 48 33 54 40 9 169 11 189 3z m-2461 -31 c6 -32 1 -43 -19 -43 -21 0 -39 51
-22 62 23 14 36 8 41 -19z m2607 -5 c0 -15 -4 -18 -17 -13 -10 4 -26 10 -35
12 -27 8 -22 21 10 25 35 5 42 1 42 -24z m-2665 -48 c-9 -15 -26 -12 -47 7
-24 21 -23 32 5 42 18 7 24 4 35 -15 7 -14 10 -29 7 -34z m2631 -8 c-14 -15
-18 -14 -46 13 -39 38 -29 50 22 24 37 -19 39 -22 24 -37z m-2676 -29 c0 -17
-4 -16 -40 2 -33 17 -36 25 -18 43 9 9 17 7 35 -10 13 -12 23 -27 23 -35z
m2620 -3 c-27 -17 -48 -11 -54 17 -10 39 13 48 44 17 21 -21 23 -26 10 -34z
m-2368 -1 c1 -28 0 -53 -4 -55 -18 -12 -198 -7 -213 6 -22 18 -19 47 8 62 32
17 115 36 164 37 l41 1 4 -51z m2297 9 c11 -28 6 -38 -18 -38 -18 0 -35 42
-23 55 12 12 33 3 41 -17z m-61 -18 c3 -21 -11 -39 -30 -40 -10 0 -10 54 -1
64 12 12 28 0 31 -24z m-2528 -12 c0 -4 -13 -8 -30 -8 -28 0 -40 17 -24 33 8
7 54 -13 54 -25z m2468 0 c-4 -46 -28 -49 -28 -4 0 26 4 36 16 36 11 0 14 -8
12 -32z m-48 -8 c0 -23 -5 -30 -19 -30 -11 0 -21 6 -24 13 -7 22 5 47 24 47
14 0 19 -7 19 -30z m-2431 -56 c-17 -18 -25 -21 -36 -13 -25 22 -15 47 20 51
40 4 45 -7 16 -38z m71 16 c0 -26 -32 -70 -50 -70 -26 0 -25 15 3 50 22 29 47
39 47 20z m38 -41 c-10 -29 -33 -48 -44 -36 -9 9 26 67 41 67 11 0 12 -6 3
-31z m58 -25 c-5 -17 -13 -24 -31 -24 -29 0 -30 2 -10 40 26 51 55 41 41 -16z
m62 10 c-2 -21 -9 -30 -25 -32 -21 -3 -22 0 -16 30 11 57 48 59 41 2z m50 14
c-4 -46 -28 -49 -28 -4 0 26 4 36 16 36 11 0 14 -8 12 -32z m41 -25 c1 -7 -3
-13 -9 -13 -5 0 -10 17 -9 38 1 33 2 34 9 12 4 -14 8 -31 9 -37z m2233 -81
c184 -117 234 -288 110 -372 -31 -22 -46 -25 -121 -24 -102 0 -175 16 -253 55
l-57 29 15 30 c18 36 18 36 95 10 33 -12 96 -26 140 -32 99 -14 151 -2 174 42
28 53 15 94 -44 148 -33 29 -155 88 -201 96 -49 9 -60 18 -53 45 5 22 10 23
67 19 51 -3 72 -11 128 -46z m-2196 -48 c6 -23 1 -32 -37 -63 -114 -92 -159
-165 -159 -256 0 -63 17 -104 54 -128 72 -48 200 -21 303 62 54 44 63 48 74
34 11 -13 7 -21 -31 -54 -122 -108 -201 -143 -306 -137 -55 2 -79 9 -108 28
-115 78 -99 268 37 416 46 51 140 124 159 124 4 0 11 -12 14 -26z m2004 4 c0
-16 -3 -19 -11 -11 -6 6 -8 16 -5 22 11 17 16 13 16 -11z m48 -6 c2 -7 -3 -12
-12 -12 -9 0 -16 7 -16 16 0 17 22 14 28 -4z m42 -13 c0 -5 -4 -9 -10 -9 -5 0
-10 7 -10 16 0 8 5 12 10 9 6 -3 10 -10 10 -16z m40 -14 c0 -8 -4 -15 -10 -15
-5 0 -10 7 -10 15 0 8 5 15 10 15 6 0 10 -7 10 -15z m-55 -21 c75 -24 99 -45
91 -78 -6 -24 -10 -26 -59 -26 -64 1 -151 29 -155 51 -1 8 2 28 7 42 13 32 40
35 116 11z m105 6 c12 -7 12 -12 3 -21 -9 -9 -16 -9 -27 1 -26 21 -5 39 24 20z
m-2151 -36 c6 -15 9 -29 6 -33 -9 -8 -46 39 -39 50 9 16 20 10 33 -17z m2186
-20 c-23 -17 -34 -2 -14 22 9 11 15 12 23 4 8 -8 6 -15 -9 -26z m-2221 -9 c19
-30 20 -35 3 -35 -19 0 -50 37 -42 49 10 17 21 13 39 -14z m2276 1 c0 -2 3
-11 6 -20 7 -18 -22 -22 -46 -6 -13 9 -13 11 0 20 15 10 40 14 40 6z m-2302
-73 c-13 -13 -19 -11 -44 11 -28 25 -29 26 -9 41 18 14 21 13 43 -11 22 -23
23 -28 10 -41z m132 0 l41 -58 -48 -44 c-55 -51 -86 -64 -125 -56 -23 5 -28
12 -28 35 0 44 19 80 69 133 25 26 46 47 47 47 1 0 21 -26 44 -57z m1850 22
c0 -16 -6 -25 -15 -25 -15 0 -21 31 -8 43 13 14 23 6 23 -18z m40 -21 c0 -14
-5 -24 -11 -22 -6 2 -10 7 -10 11 1 4 1 14 1 22 0 8 5 15 10 15 6 0 10 -12 10
-26z m223 -13 c27 -40 26 -51 -4 -51 -10 0 -21 12 -28 31 -24 69 -7 79 32 20z
m70 19 c11 -10 -3 -40 -19 -40 -13 0 -44 37 -44 52 0 9 50 0 63 -12z m-2368
-12 c24 -20 34 -48 18 -48 -5 0 -23 9 -41 20 -28 17 -32 23 -22 35 16 19 15
19 45 -7z m2133 -12 c3 -23 0 -28 -13 -22 -9 3 -19 6 -21 6 -2 0 -4 12 -4 26
0 37 34 28 38 -10z m50 -9 c2 -19 -1 -27 -12 -27 -11 0 -16 10 -16 31 0 38 24
35 28 -4z m57 2 c19 -35 15 -44 -14 -34 -15 4 -21 15 -21 36 0 38 15 37 35 -2z
m-2237 -58 c5 -14 -21 -14 -55 1 -38 16 -37 16 -23 33 11 14 16 13 44 -4 17
-11 32 -25 34 -30z m282 -53 c1 -21 -25 -17 -45 8 -17 22 -20 32 -12 42 8 10
15 7 33 -15 13 -15 23 -31 24 -35z m-315 28 c48 -20 46 -40 -2 -32 -21 3 -44
6 -50 6 -7 0 -13 9 -13 20 0 24 18 25 65 6z m2057 -65 c79 -61 121 -124 145
-213 l17 -66 -25 -58 c-32 -76 -71 -104 -145 -104 -63 0 -169 36 -220 75 -32
24 -124 132 -132 156 -2 5 9 14 23 21 26 11 30 10 64 -28 85 -96 168 -144 250
-144 43 0 53 4 75 31 19 22 26 42 26 72 -1 81 -33 124 -183 249 l-29 23 22 28
c14 18 26 25 34 19 6 -5 41 -32 78 -61z m-1785 -5 c-6 -19 -29 -12 -51 17 -18
24 -19 29 -6 37 11 7 21 3 38 -16 13 -14 21 -31 19 -38z m-279 18 c23 -6 22
-7 -8 -25 -41 -25 -50 -24 -50 6 0 26 13 31 58 19z m222 -28 c13 -24 13 -28 0
-36 -23 -15 -27 -12 -37 18 -19 54 9 69 37 18z m-54 -34 c6 -28 4 -32 -15 -32
-17 0 -21 6 -21 33 0 59 24 59 36 -1z m-106 -7 c0 -49 -4 -52 -54 -31 -49 21
-51 33 -9 55 56 30 63 27 63 -24z m45 0 c0 -22 -5 -40 -12 -42 -9 -3 -13 9
-13 42 0 33 4 45 13 43 7 -3 12 -21 12 -43z m1825 36 c0 -12 -20 -25 -27 -18
-7 7 6 27 18 27 5 0 9 -4 9 -9z m-1525 -31 c17 -18 17 -21 2 -38 -31 -34 -95
-178 -106 -236 -21 -115 25 -192 122 -203 83 -10 177 66 247 201 27 52 39 66
55 64 12 -2 19 -10 19 -21 -3 -32 -99 -189 -152 -247 -88 -97 -149 -111 -256
-61 -87 42 -110 76 -114 172 -4 82 20 195 59 270 20 41 85 119 99 119 4 0 15
-9 25 -20z m1570 1 c3 -5 1 -13 -5 -16 -15 -9 -43 3 -35 15 8 13 32 13 40 1z
m-64 -19 c74 -49 119 -102 119 -140 0 -46 -56 -28 -155 48 -56 43 -57 48 -22
88 25 26 25 27 58 4z m105 -13 c10 -17 -13 -36 -27 -22 -12 12 -4 33 11 33 5
0 12 -5 16 -11z m-1541 -30 c11 -17 -2 -21 -24 -7 -28 17 -29 43 -2 28 11 -5
23 -15 26 -21z m1580 -9 c3 -6 -1 -13 -10 -16 -19 -8 -30 0 -20 15 8 14 22 14
30 1z m-1610 -20 c27 -30 6 -48 -29 -25 -21 14 -24 20 -15 31 15 19 23 18 44
-6z m150 -53 c19 -14 18 -15 -15 -71 -46 -76 -85 -116 -113 -116 -28 0 -47 17
-47 42 0 28 39 138 61 175 l20 32 37 -24 c20 -13 46 -30 57 -38z m1225 50 c0
-8 -8 -22 -19 -31 -17 -16 -19 -16 -25 0 -7 19 10 44 30 44 8 0 14 -6 14 -13z
m274 -22 c4 -11 -1 -15 -19 -15 -25 0 -39 12 -28 24 12 11 41 6 47 -9z m-234
-19 c0 -7 -9 -21 -20 -31 -18 -16 -20 -16 -26 -1 -4 10 1 25 11 36 18 20 35
18 35 -4z m-1430 -28 c0 -12 -7 -18 -22 -18 -38 0 -52 14 -39 38 10 19 15 20
36 10 14 -6 25 -19 25 -30z m1473 6 c3 -4 -1 -20 -9 -37 -14 -26 -17 -28 -31
-15 -12 13 -13 19 -1 37 13 21 29 27 41 15z m214 -9 c0 -16 -52 -22 -61 -6 -8
13 5 21 34 21 17 0 27 -5 27 -15z m-1452 -19 c17 -12 16 -46 -2 -46 -19 1 -45
30 -40 45 8 19 18 19 42 1z m1044 -45 c40 -63 71 -152 71 -206 0 -89 -71 -214
-142 -251 -31 -16 -105 -18 -141 -5 -39 15 -101 86 -144 166 -40 73 -99 222
-92 229 2 3 17 6 34 8 28 3 31 -1 81 -102 78 -155 126 -200 220 -200 39 0 51
5 81 35 35 35 35 36 31 108 -3 60 -11 86 -45 156 -39 78 -41 85 -25 97 28 21
37 17 71 -35z m236 22 c-8 -36 -22 -50 -35 -37 -15 15 5 64 26 64 13 0 15 -6
9 -27z m-1557 11 c13 -4 22 -14 22 -26 0 -16 -5 -18 -37 -12 -46 8 -45 7 -37
28 7 17 16 19 52 10z m1597 -36 c-9 -40 -13 -48 -26 -48 -12 0 -11 24 3 55 16
36 31 31 23 -7z m135 12 c0 -11 -4 -20 -8 -20 -5 0 -17 9 -27 20 -18 20 -17
20 8 20 20 0 27 -5 27 -20z m-94 -12 c-3 -13 -6 -31 -6 -40 0 -10 -7 -18 -16
-18 -11 0 -14 5 -10 16 3 9 9 27 12 40 3 13 11 24 16 24 6 0 8 -10 4 -22z
m-1388 -4 c18 -12 20 -19 12 -35 -13 -23 -19 -23 -50 0 -20 16 -22 21 -11 35
17 20 21 20 49 0z m969 0 c5 -15 -28 -27 -40 -15 -5 5 -6 14 -2 21 8 13 37 9
42 -6z m482 -41 c-6 -7 -20 -13 -30 -13 -20 0 -25 23 -13 55 6 14 9 13 30 -6
18 -17 21 -25 13 -36z m-1273 29 c6 -4 14 -56 17 -122 11 -215 39 -277 129
-287 60 -7 89 1 127 32 40 34 70 118 83 230 10 90 17 105 47 100 14 -2 16 -16
13 -96 -3 -133 -16 -190 -58 -261 -54 -94 -82 -112 -174 -116 -90 -4 -129 13
-176 74 -35 47 -74 175 -74 245 0 84 28 209 47 209 5 0 13 -4 19 -8z m750 -44
c33 -65 39 -150 11 -156 -10 -2 -29 9 -45 26 -29 31 -97 150 -90 157 4 4 69
21 90 24 4 1 20 -22 34 -51z m-1182 36 c33 -13 17 -34 -24 -34 -33 0 -40 3
-40 20 0 21 30 27 64 14z m506 -14 c12 -8 11 -10 -7 -10 -13 0 -23 5 -23 10 0
13 11 13 30 0z m520 -9 c0 -11 -49 -21 -55 -11 -2 4 -2 10 2 14 10 9 53 7 53
-3z m218 -3 c-7 -19 -38 -22 -38 -4 0 10 9 16 21 16 12 0 19 -5 17 -12z
m-1024 -17 c15 -17 13 -51 -3 -51 -15 0 -53 49 -46 59 10 16 30 13 49 -8z
m464 3 c13 -4 9 -85 -9 -156 -12 -48 -53 -63 -80 -29 -20 24 -39 103 -39 161
l0 39 58 -6 c31 -2 63 -6 70 -9z m-148 -19 c0 -10 -11 -15 -35 -15 -24 0 -35
5 -35 15 0 10 11 15 35 15 24 0 35 -5 35 -15z m240 5 c0 -5 -13 -10 -30 -10
-16 0 -30 5 -30 10 0 6 14 10 30 10 17 0 30 -4 30 -10z m275 0 c6 -9 -33 -30
-56 -30 -18 0 -9 21 14 30 29 12 35 12 42 0z m-1029 -15 c8 -20 7 -21 -42 -30
-33 -5 -43 -3 -48 10 -9 25 -2 31 44 33 29 2 42 -2 46 -13z m1244 6 c0 -12
-39 -21 -45 -11 -3 5 1 11 7 13 21 9 38 8 38 -2z m-1087 -27 c15 -20 16 -28 7
-39 -17 -21 -25 -19 -38 10 -25 55 -3 76 31 29z m587 -9 c0 -16 -17 -19 -44
-9 -22 9 -10 24 20 24 15 0 24 -6 24 -15z m310 5 c0 -8 -51 -40 -65 -40 -15 0
-2 32 18 40 30 12 47 12 47 0z m-945 -37 c15 -35 15 -39 -1 -50 -25 -19 -31
-16 -38 15 -3 15 -8 37 -12 50 -5 18 -2 22 15 22 15 0 25 -11 36 -37z m405 17
c0 -16 -7 -20 -35 -20 -28 0 -35 4 -35 20 0 16 7 20 35 20 28 0 35 -4 35 -20z
m754 11 c3 -5 -6 -12 -20 -15 -29 -8 -39 -3 -29 13 8 13 42 14 49 2z m-1274
-19 c0 -5 -10 -18 -23 -30 -18 -17 -26 -19 -35 -10 -17 17 -15 36 6 41 29 8
52 7 52 -1z m57 -45 c5 -35 4 -37 -23 -37 -53 0 -60 14 -29 54 31 41 43 37 52
-17z m679 33 c8 0 14 -9 14 -19 0 -16 -5 -18 -27 -12 -16 4 -30 16 -32 26 -2
13 1 16 14 11 9 -3 23 -6 31 -6z m344 -4 c0 -7 -12 -21 -26 -31 -22 -14 -28
-15 -35 -4 -13 20 -11 23 14 35 31 16 47 16 47 0z m208 -14 c3 -10 -13 -10
-63 -2 -5 1 1 6 15 10 30 9 42 8 48 -8z m-758 -17 c0 -19 -60 -31 -71 -14 -14
23 -11 28 24 31 39 4 47 1 47 -17z m580 -4 c0 -19 -47 -64 -58 -57 -20 12 -14
30 16 48 31 20 42 22 42 9z m-372 -34 c3 -14 -1 -15 -27 -6 -30 11 -37 19 -25
32 10 10 49 -9 52 -26z m540 24 c8 -5 12 -15 10 -24 -3 -14 -6 -14 -38 0 -32
14 -33 16 -15 23 26 11 28 11 43 1z m-138 -22 c0 -19 -32 -79 -41 -79 -20 0
-20 31 1 60 22 30 40 39 40 19z m-590 -8 c0 -13 -70 -52 -81 -46 -18 12 -9 44
14 48 41 8 67 7 67 -2z m630 -20 c0 -36 -21 -80 -36 -74 -18 7 -18 12 1 57 16
38 35 48 35 17z m-469 -1 c18 -10 27 -40 11 -40 -13 0 -52 30 -52 41 0 12 17
12 41 -1z m553 -1 c21 -10 24 -15 14 -32 -10 -20 -11 -20 -29 4 -30 39 -26 46
15 28z m-36 -31 c23 -36 16 -48 -26 -48 -19 0 -22 4 -17 23 4 12 9 30 11 40 7
23 9 22 32 -15z m-658 14 c0 -4 -18 -25 -39 -46 -38 -37 -39 -38 -50 -17 -10
18 -7 23 26 45 39 25 63 32 63 18z m110 -24 c31 -23 40 -48 17 -48 -17 0 -69
54 -60 63 9 10 11 9 43 -15z m-88 -58 c3 -48 2 -50 -23 -50 -14 0 -34 6 -45
14 -18 14 -18 16 15 50 19 20 38 36 42 36 4 0 9 -23 11 -50z m67 -33 c-32 -26
-44 -17 -47 39 l-3 49 36 -35 36 -35 -22 -18z"/>
<path d="M2540 3330 c-171 -26 -395 -141 -510 -260 -104 -108 -236 -364 -276
-538 -10 -43 -16 -115 -16 -202 0 -113 4 -151 26 -235 43 -167 152 -361 249
-445 58 -50 226 -157 318 -203 110 -55 175 -73 318 -89 255 -28 474 40 669
207 76 65 190 218 234 312 83 181 101 245 106 385 6 177 -19 291 -106 483 -85
187 -168 291 -337 419 -110 83 -225 139 -327 160 -79 16 -262 20 -348 6z m132
-75 c4 -120 3 -128 -9 -132 -10 -4 -21 33 -48 165 -6 31 -5 32 24 32 l31 0 2
-65z m62 28 c3 -21 6 -62 6 -91 0 -49 -2 -53 -21 -50 -19 3 -21 11 -26 91 -4
81 -3 87 15 87 15 0 21 -9 26 -37z m62 -15 c-3 -29 -6 -70 -6 -90 0 -27 -4
-38 -15 -38 -11 0 -15 12 -15 44 0 24 -3 64 -6 90 -7 45 -6 46 21 46 28 0 28
0 21 -52z m-187 -49 c23 -99 26 -129 12 -129 -18 0 -29 27 -50 118 -25 112
-25 102 -2 102 16 0 23 -15 40 -91z m266 69 c-7 -80 -18 -168 -22 -168 -2 0
-13 5 -24 10 -20 11 -25 66 -13 143 6 32 10 37 34 37 22 0 27 -4 25 -22z
m-345 8 c0 -2 9 -39 20 -82 24 -96 24 -106 4 -102 -11 2 -26 33 -45 88 -34
105 -34 100 -4 100 14 0 25 -2 25 -4z m404 -28 c-14 -65 -50 -179 -55 -174 -6
6 6 146 16 183 3 15 13 23 26 23 18 0 20 -4 13 -32z m-456 -35 c35 -97 37
-113 15 -113 -15 0 -26 18 -50 80 -31 81 -31 81 8 89 4 0 16 -25 27 -56z m507
31 c0 -5 -11 -48 -24 -96 -19 -70 -28 -88 -42 -88 -10 0 -17 6 -14 13 2 6 16
52 30 100 16 54 31 87 38 84 7 -2 12 -8 12 -13z m-557 -77 c24 -65 27 -87 12
-87 -6 0 -27 34 -47 76 -30 62 -34 77 -22 85 19 11 32 -4 57 -74z m605 68 c22
-9 -31 -175 -55 -175 -22 0 -22 0 3 90 26 95 26 95 52 85z m-656 -90 c34 -68
36 -76 23 -100 -7 -14 -16 -25 -20 -25 -3 0 -26 41 -50 90 -38 77 -42 92 -30
100 29 19 41 9 77 -65z m722 56 c16 -10 17 -7 -28 -89 -52 -96 -66 -82 -31 32
20 64 31 75 59 57z m-786 -101 c49 -94 56 -113 34 -104 -17 6 -109 179 -100
187 13 13 19 6 66 -83z m-49 -11 c49 -87 54 -102 32 -97 -15 3 -116 126 -116
141 0 7 27 35 36 37 1 0 23 -37 48 -81z m886 69 c-1 -7 -18 -46 -39 -86 -32
-63 -39 -72 -50 -58 -10 12 -6 27 24 85 33 63 66 93 65 59z m45 -47 c-16 -44
-90 -161 -102 -161 -15 0 -10 14 42 124 31 65 39 75 51 65 8 -7 12 -19 9 -28z
m-985 -56 c49 -62 56 -85 25 -85 -17 0 -117 129 -109 141 12 21 35 5 84 -56z
m1040 38 c0 -13 -109 -152 -114 -145 -3 4 4 21 15 38 11 16 31 50 45 76 17 33
29 46 39 42 8 -4 15 -8 15 -11z m-413 -13 c17 -10 37 -28 43 -40 9 -17 14 -19
26 -9 9 7 33 10 66 7 55 -6 84 -31 90 -78 3 -21 10 -26 43 -31 49 -7 92 -29
127 -66 29 -30 58 -91 58 -121 0 -12 11 -24 28 -31 15 -7 40 -30 56 -52 27
-38 28 -45 22 -108 -5 -63 -4 -69 19 -91 39 -36 50 -93 30 -146 -9 -24 -21
-44 -26 -44 -14 0 -11 -26 6 -40 40 -33 25 -151 -21 -172 -23 -11 -25 -16 -19
-55 12 -84 -55 -183 -125 -183 -16 0 -20 -6 -20 -32 0 -53 -18 -102 -47 -130
-23 -22 -39 -27 -85 -29 -47 -2 -62 -7 -80 -27 -48 -52 -138 -75 -193 -50 -21
10 -32 7 -74 -15 -58 -32 -113 -35 -158 -8 -17 11 -59 22 -93 25 -74 7 -109
24 -147 71 -25 30 -38 37 -84 42 -43 5 -61 13 -92 42 -33 32 -38 42 -39 83 -1
55 -8 63 -63 71 -30 5 -49 16 -73 44 -32 36 -34 41 -27 95 3 32 11 71 16 88
10 26 7 34 -20 68 -56 71 -67 139 -30 186 19 24 20 30 8 74 -17 68 -5 116 40
165 33 36 39 51 44 101 9 88 32 113 120 131 23 5 27 10 27 41 0 19 5 44 10 55
15 28 83 59 134 61 37 2 46 7 65 35 26 40 76 73 112 73 14 0 46 -7 71 -16 45
-15 46 -14 83 10 48 33 124 35 172 6z m-675 -65 c43 -59 50 -85 23 -85 -16 0
-115 109 -115 126 0 15 32 36 41 26 3 -4 26 -34 51 -67z m1125 39 c2 -5 -11
-25 -28 -44 -17 -19 -37 -45 -46 -57 -14 -21 -43 -32 -43 -17 0 4 21 35 46 71
42 58 63 72 71 47z m-1117 -172 c0 -32 -7 -27 -78 49 -59 63 -71 86 -55 103
12 12 132 -126 133 -152z m1105 73 c-52 -60 -82 -65 -39 -7 51 69 79 95 82 78
2 -9 -18 -41 -43 -71z m103 11 c-6 -21 -107 -108 -117 -101 -18 11 -13 25 36
86 44 57 47 59 65 42 10 -9 17 -22 16 -27z m-1351 10 c4 -8 32 -39 61 -69 48
-51 63 -77 45 -77 -9 0 -89 73 -122 112 -13 14 -20 31 -16 37 9 15 22 14 32
-3z m9 -90 c30 -30 54 -58 54 -64 0 -22 -34 -22 -58 0 -71 66 -82 81 -77 99
10 29 23 23 81 -35z m1384 35 c9 -17 2 -26 -49 -65 -64 -49 -76 -54 -84 -32
-6 15 92 116 112 116 6 0 15 -9 21 -19z m-1420 -95 c66 -62 53 -80 -19 -26
-68 50 -65 46 -57 65 8 22 15 18 76 -39z m1460 29 c0 -6 -21 -25 -47 -42 -27
-16 -60 -37 -75 -47 -27 -18 -28 -18 -28 1 0 12 24 36 62 65 59 43 88 51 88
23z m-1482 -78 c53 -39 59 -51 43 -76 -8 -12 -16 -10 -48 14 -76 56 -93 76
-82 97 11 20 10 21 87 -35z m1509 37 c4 -11 -124 -94 -145 -94 -25 0 -8 19 58
64 64 43 81 49 87 30z m23 -53 c0 -27 -98 -97 -119 -84 -27 17 -21 27 37 65
65 42 82 46 82 19z m-1587 -33 c24 -18 57 -43 73 -54 36 -27 26 -41 -13 -19
-80 45 -118 73 -121 88 -5 25 13 21 61 -15z m1627 -38 c0 -9 -127 -69 -134
-63 -13 13 -4 23 52 62 51 35 58 38 70 23 6 -9 12 -18 12 -22z m-1621 -26 c65
-42 71 -48 57 -62 -13 -14 -20 -12 -68 17 -81 49 -89 57 -82 75 3 9 9 16 13
16 4 0 40 -21 80 -46z m1636 -24 c0 -14 -130 -72 -140 -62 -12 13 -1 23 57 52
64 31 83 33 83 10z m-1678 -25 c29 -19 57 -35 63 -35 5 0 10 -4 10 -10 0 -14
-17 -12 -80 8 -75 24 -82 29 -70 53 14 25 17 25 77 -16z m1695 -20 c0 -10 -85
-47 -134 -59 -52 -12 -28 10 45 41 74 32 88 35 89 18z m-1711 -36 c38 -12 69
-25 69 -31 0 -5 -8 -7 -17 -4 -16 5 -120 26 -129 26 -2 0 -4 7 -4 15 0 19 -1
19 81 -6z m1731 -9 c0 -5 1 -16 2 -22 1 -16 -175 -50 -188 -37 -13 12 -12 12
74 41 85 28 109 32 112 18z m-1738 -33 c33 -7 62 -19 64 -26 4 -12 -10 -13
-73 -8 -84 6 -90 9 -82 32 7 18 14 18 91 2z m1754 -39 c-5 -13 -145 -41 -160
-32 -19 12 -5 23 45 32 78 14 119 14 115 0z m-1695 -25 c24 -14 -3 -23 -72
-23 -77 0 -100 8 -86 31 6 9 138 3 158 -8z m1705 -30 c-2 -14 -18 -20 -66 -26
-68 -9 -96 -4 -90 16 5 12 54 23 121 26 32 1 38 -2 35 -16z m-1680 -30 c3 -10
-20 -13 -92 -13 -80 0 -96 3 -96 15 0 13 15 15 92 13 62 -2 93 -7 96 -15z
m1692 -32 c0 -23 -27 -31 -107 -31 -55 0 -61 2 -56 19 4 15 19 20 76 28 81 10
87 9 87 -16z m-1710 -9 c0 -4 -7 -18 -16 -30 -13 -19 -24 -22 -90 -22 -76 0
-83 4 -68 44 5 13 23 16 90 16 46 0 84 -3 84 -8z m1705 -61 c-6 -5 -50 -13
-99 -17 -88 -7 -88 -7 -77 14 10 18 22 22 89 24 78 3 105 -4 87 -21z m-1725
-21 c0 -14 -35 -26 -97 -33 -54 -6 -70 2 -59 28 4 11 24 15 81 15 44 0 75 -4
75 -10z m1728 -32 c-3 -20 -10 -23 -48 -26 -59 -3 -132 10 -137 25 -4 12 28
16 145 21 40 2 43 0 40 -20z m-1720 -20 c-4 -12 -108 -48 -140 -48 -11 0 -18
8 -18 20 0 14 9 21 33 24 111 18 130 19 125 4z m1721 -34 c1 -1 0 -7 -4 -13
-13 -22 -165 -7 -165 16 0 12 14 13 83 7 45 -3 84 -8 86 -10z m-1691 -29 c-3
-3 -41 -19 -86 -35 -80 -29 -81 -29 -87 -9 -9 29 -1 35 80 57 59 17 72 18 84
6 8 -7 12 -16 9 -19z m1660 -11 c13 -4 22 -14 22 -26 0 -18 -4 -20 -47 -14
-97 14 -113 18 -113 32 0 10 15 14 58 14 31 0 67 -3 80 -6z m-1623 -29 c-1
-15 -178 -85 -189 -75 -19 19 6 39 76 63 74 26 113 30 113 12z m1598 -31 c24
-5 35 -22 22 -36 -5 -5 -108 15 -143 27 -7 3 -10 10 -6 16 6 10 50 8 127 -7z
m-1613 -26 c-1 -17 -145 -82 -160 -73 -21 13 -5 27 65 55 80 32 95 35 95 18z
m1556 -19 c66 -13 84 -23 67 -40 -8 -8 -32 -5 -87 11 -42 13 -76 27 -76 31 0
12 25 11 96 -2z m-1566 -42 c0 -18 -12 -29 -56 -50 -56 -28 -74 -28 -74 -1 0
11 108 74 128 74 1 0 2 -10 2 -23z m1530 -2 c84 -28 93 -34 81 -54 -7 -11 -17
-11 -57 3 -58 19 -114 52 -114 66 0 14 8 13 90 -15z m-2 -62 c66 -29 67 -30
53 -52 -8 -12 -14 -12 -43 -1 -54 22 -98 51 -98 66 0 20 17 18 88 -13z m-1530
6 c-4 -12 -82 -59 -98 -59 -22 0 -7 16 38 42 52 30 65 33 60 17z m27 -49 c0
-8 -19 -28 -43 -44 -43 -30 -44 -30 -58 -11 -13 17 -11 21 28 46 46 30 73 33
73 9z m1533 -50 c2 -5 -2 -10 -8 -10 -16 0 -120 63 -120 72 0 10 124 -50 128
-62z m-1519 13 c-34 -43 -73 -83 -81 -83 -22 0 -3 32 40 64 53 40 60 43 41 19z
m1447 -15 c53 -32 67 -48 41 -48 -13 0 -117 67 -117 75 0 12 26 3 76 -27z
m-1429 -50 c-44 -62 -69 -78 -75 -47 -4 22 76 109 100 109 17 0 14 -9 -25 -62z
m103 37 c0 -7 -6 -18 -13 -22 -7 -4 -34 -34 -61 -66 -32 -37 -53 -54 -59 -48
-10 10 5 36 66 114 29 37 67 50 67 22z m1300 -21 c38 -23 58 -40 52 -46 -10
-10 -122 58 -122 73 0 13 4 12 70 -27z m23 -64 c4 0 7 -4 7 -10 0 -19 -22 -10
-75 34 -68 55 -61 68 8 15 29 -21 55 -39 60 -39z m-85 13 c64 -50 71 -63 47
-83 -12 -10 -26 -3 -80 40 -39 31 -65 59 -65 71 0 32 33 22 98 -28z m-1234 19
c2 -4 -9 -23 -26 -42 -17 -19 -37 -45 -45 -57 -16 -25 -33 -30 -33 -12 0 13
81 118 92 119 4 0 9 -4 12 -8z m21 -52 c9 -14 -66 -109 -81 -103 -20 8 -18 15
22 66 37 48 48 55 59 37z m1181 -37 c37 -32 51 -50 44 -57 -7 -7 -29 8 -68 47
-69 69 -52 76 24 10z m-1181 -47 c-25 -42 -45 -59 -45 -38 0 14 61 94 67 89 2
-3 -7 -26 -22 -51z m1153 11 c42 -43 50 -57 32 -57 -10 0 -82 74 -88 91 -8 21
17 6 56 -34z m-1088 8 c0 -18 -42 -105 -51 -105 -3 0 -11 6 -17 13 -8 9 -3 25
19 60 29 47 49 60 49 32z m1064 -41 c32 -36 36 -46 26 -59 -19 -22 -25 -19
-66 30 -30 37 -34 48 -24 60 17 20 20 19 64 -31z m-1004 24 c0 -19 -59 -118
-70 -118 -16 0 -12 26 12 80 15 34 28 50 40 50 10 0 18 -6 18 -12z m50 -7 c0
-4 -13 -38 -30 -74 -22 -49 -34 -65 -45 -61 -8 4 -15 8 -15 10 0 17 68 134 78
134 6 0 12 -4 12 -9z m895 -56 c23 -29 35 -52 31 -62 -6 -14 -8 -14 -27 2 -29
27 -61 83 -54 95 9 14 9 14 50 -35z m-859 21 c7 -18 -27 -128 -41 -133 -5 -1
-16 1 -24 6 -12 8 -10 20 15 75 29 66 40 77 50 52z m817 -53 c29 -43 35 -58
25 -64 -20 -13 -25 -9 -67 56 -25 38 -36 62 -29 66 18 11 31 1 71 -58z m-75 5
c18 -29 38 -61 44 -70 10 -14 10 -20 0 -30 -11 -11 -17 -8 -33 12 -31 39 -70
120 -64 130 11 18 20 11 53 -42z m-695 15 c2 -5 -6 -36 -17 -70 -15 -45 -25
-60 -34 -55 -12 8 -9 28 20 105 10 26 23 35 31 20z m634 -20 c4 -10 20 -40 36
-66 24 -40 27 -51 16 -58 -27 -17 -38 -9 -73 54 -33 57 -34 63 -19 75 23 16
32 15 40 -5z m-591 -4 c8 -14 -26 -129 -38 -129 -18 0 -19 29 -3 84 16 55 27
67 41 45z m43 -65 c-16 -65 -28 -89 -40 -77 -10 10 5 90 23 127 19 35 30 2 17
-50z m380 -17 c12 -40 25 -78 27 -84 4 -9 -6 -13 -34 -13 -39 0 -39 0 -46 46
-3 26 -6 66 -6 89 0 37 3 42 19 38 13 -3 25 -26 40 -76z m-319 67 c0 -17 -33
-130 -40 -137 -18 -19 -20 16 -4 77 10 42 22 66 30 66 8 0 14 -3 14 -6z m445
-55 c40 -80 40 -79 16 -79 -15 0 -29 16 -51 60 -35 69 -37 80 -12 80 11 -1 28
-22 47 -61z m-405 26 c0 -52 -22 -125 -37 -125 -17 0 -14 35 7 113 12 42 30
50 30 12z m200 -7 c0 -18 3 -57 6 -85 6 -48 5 -53 -13 -53 -17 0 -21 9 -27 46
-13 95 -7 120 27 123 4 1 7 -14 7 -31z m148 -36 c17 -37 32 -71 32 -75 0 -4
-11 -7 -23 -7 -25 0 -46 36 -66 113 -8 32 -7 37 7 37 11 0 29 -25 50 -68z
m-298 -11 c0 -62 -7 -81 -31 -81 -22 0 -22 0 -8 73 15 74 39 78 39 8z m48 -14
c2 -45 0 -59 -13 -63 -22 -9 -23 -7 -17 64 6 79 26 78 30 -1z m42 39 c0 -13 3
-44 6 -70 6 -38 4 -46 -10 -46 -13 0 -16 12 -16 70 0 40 4 70 10 70 6 0 10
-11 10 -24z"/>
<path d="M2475 3035 c-27 -26 -34 -89 -15 -125 8 -15 5 -19 -14 -24 -35 -9
-83 -52 -90 -82 -6 -22 -11 -25 -34 -19 -39 9 -56 30 -56 69 0 66 76 108 90
50 4 -17 2 -29 -7 -35 -22 -14 -42 -11 -35 6 3 9 0 15 -10 15 -25 0 -13 -44
13 -48 56 -8 86 54 45 91 -26 23 -56 21 -88 -6 -23 -20 -27 -32 -27 -72 0 -40
4 -52 27 -70 26 -21 26 -21 7 -39 -11 -10 -23 -32 -27 -49 -8 -38 -29 -56 -65
-57 -32 0 -79 41 -79 70 0 24 42 70 63 70 37 0 63 -72 31 -84 -23 -9 -24 -8
-33 17 -8 20 -10 20 -16 4 -9 -21 11 -47 35 -47 22 0 50 31 50 57 0 29 -29 61
-62 69 -23 5 -33 0 -58 -26 -39 -41 -40 -82 -3 -116 14 -13 37 -27 50 -30 18
-5 22 -11 17 -23 -4 -9 -8 -40 -9 -70 -1 -43 -6 -58 -24 -73 -31 -24 -87 -24
-101 1 -25 47 1 101 48 101 23 0 40 -39 27 -59 -11 -19 -35 -12 -35 11 0 16
-3 19 -11 11 -17 -17 -1 -53 25 -53 29 0 46 18 46 50 0 56 -68 79 -108 37 -29
-31 -29 -86 -1 -116 17 -18 30 -22 63 -19 l41 3 6 -55 c3 -31 12 -66 20 -78
13 -22 12 -25 -21 -52 -19 -16 -46 -32 -59 -35 -36 -9 -75 24 -79 66 -2 29 2
37 27 52 23 13 35 15 50 8 21 -12 30 -30 24 -48 -6 -18 -43 -16 -43 2 0 8 -4
15 -10 15 -15 0 -12 -36 4 -49 14 -12 65 0 67 16 0 5 2 16 4 27 2 10 -8 29
-21 43 -19 19 -31 23 -52 18 -74 -18 -96 -93 -43 -146 32 -32 40 -34 89 -20
l32 10 0 -38 c0 -44 33 -86 74 -97 24 -6 25 -9 20 -53 -7 -56 -40 -91 -87 -91
-43 1 -67 21 -74 63 -4 28 -1 37 18 51 31 22 66 20 79 -3 13 -26 3 -51 -22
-51 -17 0 -19 4 -14 26 5 19 3 25 -6 22 -36 -12 -13 -68 28 -68 29 0 47 31 38
65 -12 50 -79 61 -121 19 -21 -21 -24 -32 -19 -62 12 -78 92 -111 155 -64 l30
22 36 -24 c20 -14 49 -27 64 -31 56 -12 44 -103 -16 -126 -33 -12 -60 -4 -79
27 -22 33 -11 72 22 80 34 9 64 -18 47 -44 -6 -9 -18 -16 -27 -16 -9 1 -16 -4
-16 -12 0 -23 38 -16 55 10 33 50 -22 104 -77 75 -30 -16 -38 -28 -38 -60 0
-33 32 -75 64 -83 30 -7 73 8 103 36 14 13 26 17 35 12 7 -5 35 -11 63 -14 45
-5 50 -8 58 -37 13 -43 3 -77 -27 -92 -48 -26 -96 17 -73 67 14 30 62 28 62
-3 0 -11 -6 -21 -12 -21 -26 -3 -28 -5 -14 -13 32 -20 57 13 41 54 -17 45 -84
28 -102 -26 -10 -26 19 -78 47 -85 67 -17 116 43 97 118 -6 23 -9 44 -7 46 2
3 18 -7 35 -22 34 -28 62 -32 107 -15 24 9 30 7 46 -12 27 -33 19 -87 -16
-113 -26 -19 -30 -19 -55 -5 -39 21 -38 70 1 83 22 8 30 7 37 -4 14 -22 6 -35
-19 -34 -12 0 -21 -6 -21 -13 0 -10 9 -13 26 -11 53 6 50 88 -3 88 -70 0 -97
-67 -47 -117 32 -32 77 -26 113 14 19 22 22 34 18 70 -2 24 -13 53 -22 63 -22
24 -18 24 28 5 47 -20 78 -19 123 2 l36 18 29 -33 c33 -37 36 -58 13 -90 -11
-16 -25 -22 -55 -22 -33 0 -41 4 -51 26 -16 34 0 59 38 59 36 0 39 -27 4 -35
-25 -6 -25 -6 -4 -18 18 -9 25 -8 39 8 15 17 16 24 7 45 -22 48 -112 22 -112
-33 1 -58 58 -91 116 -67 59 25 68 85 20 143 -31 36 -26 72 11 72 30 0 73 42
73 71 0 19 4 21 33 15 64 -13 108 -95 74 -140 -16 -22 -68 -26 -91 -6 -30 24
-10 90 28 90 11 0 16 -9 16 -32 0 -23 3 -29 11 -21 15 15 7 54 -13 67 -12 7
-24 6 -43 -4 -50 -27 -45 -101 9 -127 101 -48 158 81 71 162 l-32 31 23 28
c14 15 24 40 24 56 0 60 111 74 140 19 19 -35 12 -77 -16 -96 -24 -15 -29 -15
-53 -2 -30 17 -38 46 -19 72 17 23 52 12 45 -14 -5 -20 7 -26 18 -9 10 16 -5
48 -25 55 -43 14 -81 -36 -65 -85 4 -12 21 -28 39 -37 29 -13 37 -14 62 -2 62
30 57 130 -7 162 -28 13 -36 22 -32 37 5 18 6 18 35 -3 l29 -22 37 20 c40 22
58 58 48 98 -8 33 -44 57 -95 64 -27 4 -38 10 -34 18 2 8 -5 35 -16 61 -26 58
-26 69 -1 94 22 22 78 27 111 10 28 -16 27 -84 -3 -104 -44 -31 -86 -9 -74 39
7 28 31 33 44 9 7 -12 11 -13 16 -5 10 16 -12 41 -37 41 -43 0 -63 -72 -29
-103 10 -10 26 -17 36 -17 25 0 73 27 80 45 13 35 6 85 -15 106 -18 18 -30 21
-80 17 -54 -4 -58 -3 -64 19 -3 12 -19 38 -35 57 -17 18 -30 45 -30 59 0 43
56 69 105 51 44 -17 35 -114 -10 -114 -27 0 -48 22 -43 47 4 23 38 30 38 9 0
-9 5 -16 10 -16 13 0 13 37 -1 45 -20 13 -59 -5 -65 -30 -15 -60 60 -100 101
-55 26 29 23 100 -7 123 -22 19 -77 20 -118 3 -11 -4 -19 2 -26 23 -14 35 -53
62 -102 70 -46 8 -51 29 -17 70 44 52 122 38 113 -21 -2 -18 -9 -23 -32 -23
-35 0 -47 24 -17 32 26 7 28 23 3 23 -41 0 -57 -51 -23 -70 26 -14 64 -13 79
2 18 18 14 73 -6 91 -10 10 -35 17 -56 17 -30 0 -45 -7 -71 -33 -32 -32 -32
-32 -61 -15 -16 10 -23 18 -16 18 20 0 52 38 52 64 0 36 -37 76 -70 76 -30 0
-90 -57 -90 -85 0 -11 -8 -13 -32 -8 -43 8 -41 5 -21 41 17 30 17 32 -3 59
-49 65 -144 26 -144 -58 0 -39 0 -39 -39 -39 -22 0 -44 -6 -51 -15 -18 -22
-57 -18 -74 7 -48 68 23 167 79 112 33 -33 -4 -94 -39 -64 -15 12 -15 15 1 33
17 19 17 19 -2 16 -43 -8 -23 -79 22 -79 22 0 53 38 53 65 0 61 -80 86 -125
40z m301 -30 c16 -24 16 -27 -1 -45 -10 -11 -24 -20 -30 -20 -18 0 -26 25 -12
39 6 6 7 14 4 18 -4 4 -15 0 -23 -9 -21 -20 -10 -54 19 -62 21 -5 21 -6 3 -19
-32 -24 -66 0 -66 46 0 69 71 105 106 52z m198 -31 c36 -35 -2 -105 -40 -73
-18 15 -18 39 1 39 15 0 20 12 9 23 -12 11 -44 -13 -44 -33 0 -11 9 -29 20
-40 l20 -20 -29 0 c-24 0 -31 5 -36 29 -13 62 59 116 99 75z m-288 -89 c32
-13 38 -13 57 0 33 23 80 19 111 -10 18 -16 39 -25 60 -25 42 0 84 -32 88 -67
3 -25 7 -27 52 -28 40 0 52 -5 72 -28 27 -32 45 -88 37 -117 -4 -15 4 -31 26
-54 37 -38 50 -95 31 -130 -11 -21 -9 -28 11 -55 30 -41 30 -93 0 -125 -22
-23 -22 -26 -7 -48 33 -47 15 -100 -39 -118 -32 -11 -35 -15 -35 -50 0 -30 -6
-43 -26 -59 -15 -12 -35 -21 -46 -21 -11 0 -23 -11 -29 -27 -20 -51 -26 -58
-55 -68 -17 -5 -47 -27 -68 -47 -48 -47 -91 -56 -150 -34 -42 16 -45 16 -78
-4 -44 -27 -79 -25 -107 4 -21 23 -29 24 -90 19 -60 -5 -68 -3 -88 18 -12 13
-23 37 -25 53 -2 25 -9 31 -38 39 -19 5 -50 20 -68 34 -30 22 -33 30 -30 62 3
20 8 43 11 51 5 11 -7 22 -45 40 -51 24 -53 26 -56 70 -2 36 3 54 23 84 l25
37 -20 26 c-23 29 -29 130 -8 151 6 6 12 39 13 74 2 58 4 64 38 94 21 17 37
40 37 51 0 30 37 71 67 75 20 2 29 10 35 34 4 16 19 41 34 55 21 20 36 24 83
24 41 0 63 5 75 18 21 21 75 22 122 2z m687 -656 c24 -30 18 -68 -16 -93 -21
-16 -32 -18 -45 -10 -24 15 -28 55 -6 71 21 15 46 0 37 -23 -3 -8 -1 -14 5
-14 19 0 21 29 4 50 -15 18 -21 20 -45 11 -15 -6 -30 -18 -33 -26 -5 -12 -9
-13 -20 -4 -19 15 -18 28 3 52 24 26 90 18 116 -14z"/>
<path d="M2582 2847 c-12 -13 -22 -29 -22 -37 0 -10 -5 -9 -18 3 -26 23 -75
21 -97 -4 -12 -12 -19 -36 -20 -60 0 -38 -1 -39 -27 -33 -15 3 -36 3 -47 -1
-22 -7 -46 -58 -37 -80 4 -11 -1 -15 -20 -15 -28 0 -65 -17 -76 -34 -12 -17
-9 -69 6 -95 12 -22 11 -26 -11 -45 -13 -12 -26 -37 -30 -59 -5 -33 -2 -41 31
-72 36 -34 37 -35 21 -64 -23 -45 -19 -94 10 -125 13 -14 34 -26 45 -26 18 0
20 -4 13 -22 -29 -83 30 -154 98 -118 17 10 19 7 19 -33 0 -96 89 -105 137
-13 9 16 11 11 17 -28 12 -80 87 -102 124 -36 9 17 19 30 22 30 3 0 11 -13 18
-29 15 -33 60 -56 92 -46 23 7 55 69 45 85 -8 13 8 13 22 -1 6 -6 28 -9 49 -7
48 4 71 39 54 83 l-10 27 41 -5 c35 -4 46 -1 67 20 21 21 23 31 18 64 -5 34
-4 39 13 39 30 0 71 39 71 66 0 15 -12 38 -29 54 l-29 29 37 18 c46 23 54 61
19 96 -13 13 -31 26 -39 29 -11 4 -9 10 9 30 48 52 9 118 -69 118 l-38 0 24
36 c31 45 31 63 4 99 -22 27 -55 31 -101 10 -15 -6 -18 -2 -18 23 0 21 -8 37
-27 52 -26 21 -46 22 -85 5 -15 -6 -18 -2 -18 19 0 53 -84 71 -113 25 -14 -23
-27 -25 -27 -5 0 20 -48 56 -75 56 -12 0 -31 -10 -43 -23z m74 -5 c21 -14 34
-51 34 -96 0 -51 -10 -58 -32 -24 -13 20 -17 21 -32 9 -9 -7 -16 -23 -17 -35
-1 -29 -27 50 -28 87 -2 54 37 85 75 59z m152 -24 c22 -22 4 -138 -21 -138 -5
0 -7 6 -4 14 3 8 0 22 -7 32 -12 16 -14 16 -35 -5 -13 -13 -25 -20 -28 -17
-12 11 10 80 32 102 27 27 45 30 63 12z m-276 -25 c20 -23 53 -112 45 -120 -4
-3 -16 2 -27 12 -27 24 -52 5 -44 -34 l6 -26 -31 32 c-38 41 -49 94 -27 128
19 29 56 33 78 8z m392 -33 c21 -8 26 -16 26 -46 0 -40 -27 -94 -47 -94 -9 0
-11 8 -7 25 8 30 -19 44 -48 26 -27 -17 -32 -8 -20 29 12 33 29 53 52 63 8 3
16 6 17 6 1 1 13 -3 27 -9z m-274 -60 c0 -5 -4 -10 -10 -10 -5 0 -10 5 -10 10
0 6 5 10 10 10 6 0 10 -4 10 -10z m120 0 c0 -5 -4 -10 -10 -10 -5 0 -10 5 -10
10 0 6 5 10 10 10 6 0 10 -4 10 -10z m-332 -36 c23 -19 42 -41 42 -47 0 -8 -4
-7 -12 1 -7 7 -22 12 -35 12 -26 0 -30 -19 -11 -50 10 -15 10 -22 0 -32 -11
-11 -21 -5 -53 29 -42 45 -50 81 -23 107 24 24 46 19 92 -20z m636 10 c20 -19
20 -28 2 -63 -15 -29 -77 -81 -95 -81 -14 0 -14 17 -1 25 6 3 10 15 10 27 0
17 -4 20 -30 15 -42 -9 -38 8 10 55 44 41 78 48 104 22z m-256 -35 c128 -63
211 -205 200 -337 -11 -114 -82 -212 -192 -266 -54 -25 -67 -28 -135 -24 -88
5 -150 30 -200 79 -76 76 -111 161 -111 275 0 108 74 220 182 273 86 44 170
44 256 0z m62 11 c0 -5 -5 -10 -11 -10 -5 0 -7 5 -4 10 3 6 8 10 11 10 2 0 4
-4 4 -10z m-430 -50 c0 -5 -2 -10 -4 -10 -3 0 -8 5 -11 10 -3 6 -1 10 4 10 6
0 11 -4 11 -10z m-132 -14 c15 -8 38 -26 51 -40 l24 -26 -31 0 c-25 0 -32 -4
-32 -20 0 -11 9 -25 20 -32 23 -15 27 -38 6 -38 -24 0 -81 28 -99 48 -10 11
-21 37 -24 57 -5 30 -2 41 12 51 24 18 39 18 73 0z m652 -10 c0 -3 -4 -8 -10
-11 -5 -3 -10 -1 -10 4 0 6 5 11 10 11 6 0 10 -2 10 -4z m185 -62 c24 -24 15
-55 -24 -81 -33 -22 -101 -32 -101 -14 0 5 10 15 22 23 29 20 18 48 -20 48
-39 0 -47 11 -20 27 34 18 123 17 143 -3z m-775 -24 c0 -5 -4 -10 -9 -10 -6 0
-13 5 -16 10 -3 6 1 10 9 10 9 0 16 -4 16 -10z m670 -24 c0 -9 -30 -14 -35 -6
-4 6 3 10 14 10 12 0 21 -2 21 -4z m-741 -45 c42 -18 42 -18 19 -33 -20 -13
-21 -17 -9 -32 7 -9 20 -16 27 -16 27 0 14 -18 -17 -24 -74 -15 -129 8 -129
54 0 68 35 85 109 51z m865 -52 c34 -27 31 -59 -6 -77 -35 -16 -128 -6 -128
14 0 8 9 14 19 14 20 0 31 17 24 38 -3 6 -13 12 -24 12 -10 0 -19 5 -19 10 0
6 24 10 54 10 39 0 60 -6 80 -21z m-819 1 c3 -5 1 -10 -4 -10 -6 0 -11 5 -11
10 0 6 2 10 4 10 3 0 8 -4 11 -10z m705 -24 c0 -3 -4 -8 -10 -11 -5 -3 -10 -1
-10 4 0 6 5 11 10 11 6 0 10 -2 10 -4z m-713 -84 c-18 -20 -9 -42 19 -46 10
-2 20 -12 22 -24 2 -15 -8 -27 -41 -46 -24 -14 -51 -26 -60 -26 -23 0 -47 39
-47 76 0 41 25 71 75 89 44 15 57 5 32 -23z m756 -8 c43 -22 77 -54 77 -72 0
-50 -79 -68 -137 -32 -38 23 -44 43 -10 35 15 -4 28 -1 36 9 11 13 9 19 -13
39 -40 38 -11 50 47 21z m-53 -44 c0 -5 -4 -10 -9 -10 -6 0 -13 5 -16 10 -3 6
1 10 9 10 9 0 16 -4 16 -10z m-642 -86 c-14 -30 3 -47 39 -37 36 9 28 -22 -18
-72 -69 -75 -115 -56 -110 44 1 26 76 105 91 96 5 -3 4 -17 -2 -31z m632 1
c63 -39 77 -83 37 -110 -28 -18 -78 -7 -114 27 -30 28 -29 40 2 32 30 -7 45
18 27 47 -24 38 -7 39 48 4z m-600 -15 c0 -5 -4 -10 -10 -10 -5 0 -10 5 -10
10 0 6 5 10 10 10 6 0 10 -4 10 -10z m540 -10 c0 -5 -4 -10 -10 -10 -5 0 -10
5 -10 10 0 6 5 10 10 10 6 0 10 -4 10 -10z m-9 -117 c11 -24 18 -50 15 -58 -8
-22 -47 -34 -72 -23 -22 10 -81 118 -64 118 5 0 12 -4 15 -10 3 -5 15 -10 26
-10 15 0 19 7 19 32 0 30 0 31 20 13 11 -10 29 -37 41 -62z m-467 37 c-8 -37
17 -51 46 -25 19 17 20 17 20 1 0 -41 -60 -126 -90 -126 -44 0 -53 66 -19 137
25 51 52 59 43 13z m36 1 c0 -6 -4 -13 -10 -16 -5 -3 -10 1 -10 9 0 9 5 16 10
16 6 0 10 -4 10 -9z m80 -50 c0 -17 6 -31 15 -35 17 -6 55 26 55 46 0 9 3 9
12 0 9 -9 8 -25 -1 -67 -14 -62 -34 -87 -65 -83 -32 5 -49 51 -41 114 7 57 25
75 25 25z m218 -8 c24 -86 24 -101 3 -122 -26 -26 -41 -26 -69 -1 -32 30 -55
131 -33 144 4 3 13 -6 20 -20 15 -33 45 -28 49 9 5 38 17 34 30 -10z m-178 12
c0 -8 -4 -15 -10 -15 -5 0 -10 7 -10 15 0 8 5 15 10 15 6 0 10 -7 10 -15z
m130 5 c0 -5 -5 -10 -11 -10 -5 0 -7 5 -4 10 3 6 8 10 11 10 2 0 4 -4 4 -10z"/>
<path d="M1131 3424 c-30 -8 -73 -23 -97 -34 -38 -16 -44 -23 -44 -49 0 -38
51 -180 81 -223 35 -52 92 -108 109 -108 8 0 38 24 67 53 53 55 105 87 142 87
24 0 24 0 10 37 -6 15 -12 75 -13 133 -1 102 -1 104 -26 111 -43 12 -173 8
-229 -7z m104 -34 c29 -57 36 -80 21 -80 -15 0 -69 94 -59 104 12 12 23 6 38
-24z m62 -20 c13 -67 1 -72 -26 -11 -26 60 -26 61 -2 61 14 0 21 -11 28 -50z
m41 -11 c4 -66 -13 -56 -23 15 -5 38 -4 47 7 44 8 -3 14 -25 16 -59z m-145 1
c16 -28 27 -55 25 -61 -4 -13 -78 79 -78 98 0 29 26 10 53 -37z m174 13 c-3
-10 -5 -4 -5 12 0 17 2 24 5 18 2 -7 2 -21 0 -30z m-214 -34 c21 -28 37 -52
35 -54 -4 -4 -108 92 -108 100 0 3 8 5 18 4 9 0 34 -23 55 -50z m-54 -3 c28
-30 23 -32 -22 -10 -50 26 -60 36 -46 45 16 9 37 -1 68 -35z m-12 -42 c-8 -8
-77 24 -77 36 0 6 18 1 41 -10 23 -12 39 -24 36 -26z m15 -30 c62 -20 80 -40
26 -29 -51 11 -108 36 -108 47 0 5 6 8 13 5 6 -3 38 -13 69 -23z m246 9 c11
-10 23 -36 26 -58 l5 -40 -55 -27 c-55 -27 -56 -27 -92 -10 -44 21 -58 61 -37
103 8 15 23 33 32 38 29 17 99 13 121 -6z m-232 -54 c54 -14 58 -30 7 -23 -70
10 -83 14 -83 30 0 11 5 14 16 10 9 -4 36 -11 60 -17z m23 -45 c18 -4 31 -13
31 -21 0 -10 -6 -13 -16 -9 -9 3 -31 6 -49 6 -20 0 -35 6 -39 15 -6 17 19 20
73 9z m71 -53 c32 -9 16 -18 -46 -26 -43 -6 -51 -4 -62 14 -12 20 -10 21 35
20 27 -1 59 -4 73 -8z m3 -65 c-22 -31 -34 -32 -58 -6 -19 21 -19 21 50 33 28
5 29 2 8 -27z"/>
<path d="M4053 3452 c-29 -4 -58 -13 -65 -20 -8 -8 -14 -57 -16 -137 l-4 -125
33 0 c51 0 131 -42 170 -89 l34 -42 58 58 c93 94 147 191 155 280 l4 51 -38
12 c-48 14 -260 21 -331 12z m67 -21 c0 -17 -41 -79 -55 -85 -18 -6 -19 3 -5
41 15 38 60 71 60 44z m80 1 c0 -15 -62 -82 -76 -82 -19 0 -18 4 9 50 15 28
29 40 45 40 12 0 22 -3 22 -8z m70 0 c0 -12 -92 -93 -102 -90 -14 5 66 97 85
98 9 0 17 -4 17 -8z m-220 -12 c0 -5 -7 -28 -16 -50 -19 -47 -38 -45 -23 3 6
17 12 38 15 45 4 14 24 16 24 2z m310 2 c0 -10 -111 -65 -117 -58 -11 11 64
65 90 66 15 0 27 -4 27 -8z m40 -35 c0 -13 -102 -48 -132 -46 -15 1 101 57
120 58 6 1 12 -5 12 -12z m-12 -54 c-3 -19 -60 -37 -150 -49 -80 -11 -55 11
45 38 114 32 109 32 105 11z m-224 -35 c11 -30 -2 -68 -37 -110 l-22 -28 -50
16 c-27 9 -55 17 -61 19 -6 2 -8 21 -5 51 5 44 10 51 41 67 22 11 52 16 80 15
38 -3 46 -7 54 -30z m206 -17 c0 -19 -28 -30 -104 -40 -75 -11 -97 -9 -83 5 4
4 44 15 89 24 103 22 98 22 98 11z m-30 -61 c0 -14 -176 -58 -188 -46 -13 14
26 35 83 44 82 13 105 14 105 2z m-42 -52 c-7 -20 -49 -37 -97 -40 -70 -5 -59
17 16 34 89 20 85 20 81 6z m-54 -62 c-7 -19 -35 -29 -47 -17 -7 7 -6 12 4 15
13 4 41 14 46 15 1 1 0 -5 -3 -13z"/>
<path d="M4245 2834 c-9 -52 -48 -136 -74 -158 -11 -11 -21 -22 -21 -26 0 -4
20 -13 45 -20 56 -16 134 -97 160 -165 10 -25 24 -45 32 -45 33 0 136 66 171
109 21 25 44 53 52 63 8 9 26 38 40 63 l25 47 -35 30 c-70 59 -276 138 -361
138 -23 0 -28 -5 -34 -36z m84 -16 c-76 -60 -105 -63 -45 -4 24 22 43 33 53
29 13 -5 12 -9 -8 -25z m80 3 c11 -7 1 -16 -37 -35 -70 -36 -84 -32 -40 9 39
36 53 41 77 26z m94 -42 c-13 -13 -126 -48 -135 -43 -17 11 -6 25 39 48 39 19
52 22 76 14 16 -6 25 -14 20 -19z m60 -21 c20 -10 15 -13 -53 -35 -78 -24
-131 -30 -114 -14 7 7 122 56 142 60 2 1 13 -4 25 -11z m-209 -39 c34 -27 34
-65 -1 -101 -31 -33 -53 -35 -77 -9 -10 11 -32 25 -49 32 -18 7 -33 14 -35 15
-2 1 9 21 24 43 24 37 31 41 69 41 28 0 51 -7 69 -21z m271 0 c10 -15 7 -16
-70 -24 -78 -8 -81 0 -8 20 61 17 70 17 78 4z m7 -52 c-7 -8 -26 -11 -52 -9
-50 5 -41 19 15 24 48 4 51 2 37 -15z m-119 -18 c91 -13 103 -17 90 -30 -11
-11 -171 17 -187 32 -13 12 9 11 97 -2z m-46 -34 c37 -9 79 -18 91 -21 19 -4
21 -8 13 -18 -13 -15 -27 -13 -118 16 -35 11 -63 24 -63 29 0 11 -3 12 77 -6z
m-1 -48 c73 -22 88 -32 60 -43 -17 -6 -133 42 -156 64 -13 13 -13 14 3 8 11
-3 52 -16 93 -29z m-48 -26 c72 -35 84 -47 58 -57 -14 -5 -129 66 -142 88 -8
12 -11 13 84 -31z m12 -66 c7 -8 8 -15 2 -15 -5 0 -15 7 -22 15 -7 8 -8 15 -2
15 5 0 15 -7 22 -15z m-30 -26 c0 -6 -4 -7 -10 -4 -5 3 -10 11 -10 16 0 6 5 7
10 4 6 -3 10 -11 10 -16z"/>
<path d="M1003 2775 c-65 -21 -159 -74 -208 -117 -40 -35 -45 -45 -45 -81 0
-90 82 -208 196 -284 70 -46 85 -42 99 29 14 69 54 130 114 170 26 17 48 33
50 34 2 2 -9 20 -25 41 -39 51 -53 77 -80 153 -26 72 -33 77 -101 55z m83 -65
c16 -46 18 -60 8 -60 -16 0 -67 97 -59 110 14 23 31 6 51 -50z m-56 -2 c35
-78 21 -93 -22 -24 -32 49 -35 66 -13 66 9 0 25 -19 35 -42z m-45 -24 c15 -25
24 -48 20 -52 -8 -8 -84 80 -78 91 11 18 33 3 58 -39z m-54 -11 c39 -44 52
-63 42 -63 -13 0 -93 69 -93 81 0 18 27 8 51 -18z m-8 -53 c29 -25 35 -40 15
-40 -21 1 -100 78 -93 90 5 8 14 5 29 -8 11 -11 33 -30 49 -42z m-51 -16 c68
-56 68 -60 -2 -22 -64 36 -86 58 -57 58 8 0 35 -16 59 -36z m262 -2 c8 -16 22
-34 30 -41 9 -8 16 -16 16 -20 0 -14 -110 -91 -131 -91 -30 0 -89 38 -90 58
-4 55 15 86 66 108 17 7 45 13 62 14 26 0 36 -6 47 -28z m-319 -12 c32 -21 23
-26 -19 -10 -14 5 -26 14 -26 20 0 15 11 12 45 -10z m30 -44 l40 -12 -47 -8
c-52 -8 -68 -3 -68 20 0 17 21 17 75 0z m26 -54 c-67 -12 -93 -11 -79 3 8 9
132 22 143 16 6 -3 -23 -12 -64 -19z m69 -11 c0 -5 -25 -19 -56 -31 -47 -19
-57 -21 -65 -9 -9 16 -8 16 66 34 27 7 51 13 53 14 1 1 2 -3 2 -8z m-10 -61
c-50 -43 -65 -48 -74 -24 -8 21 -11 18 49 43 72 29 76 26 25 -19z m38 -26
c-39 -55 -45 -59 -63 -44 -12 10 -6 18 31 51 60 52 73 49 32 -7z m78 -2 c-8
-16 -18 -48 -22 -71 -7 -41 -20 -53 -30 -27 -6 15 54 142 62 133 3 -3 -1 -19
-10 -35z m-28 21 c-38 -77 -53 -103 -60 -103 -16 0 -8 22 24 66 28 39 46 57
36 37z"/>
<path d="M4335 2184 c-35 -59 -79 -99 -132 -120 -48 -19 -51 -25 -24 -62 33
-47 70 -128 88 -192 l17 -62 41 6 c92 12 275 93 341 150 l39 33 -49 64 c-27
35 -77 87 -110 115 -59 50 -158 114 -175 114 -5 0 -21 -21 -36 -46z m63 14
c18 -18 16 -22 -29 -57 -46 -38 -60 -35 -32 6 11 15 23 36 26 46 7 20 18 22
35 5z m73 -46 l22 -19 -63 -21 c-35 -12 -66 -19 -69 -16 -7 6 64 74 78 74 5 0
19 -8 32 -18z m68 -56 c16 -19 8 -23 -76 -31 -84 -8 -97 5 -30 28 54 20 92 21
106 3z m-202 -16 c46 -27 57 -53 39 -88 -16 -30 -45 -47 -98 -57 -31 -6 -34
-4 -60 43 -32 57 -33 62 -14 62 7 0 31 13 52 29 21 16 41 30 44 30 3 1 19 -8
37 -19z m263 -40 c10 -19 8 -20 -52 -20 -35 0 -80 -3 -100 -6 -30 -5 -38 -3
-38 8 0 10 18 18 58 25 94 17 120 15 132 -7z m48 -60 c15 -24 10 -25 -71 -5
-80 19 -82 25 -6 25 53 0 66 -3 77 -20z m-131 -51 c77 -35 99 -59 56 -59 -22
0 -183 89 -183 101 0 13 24 5 127 -42z m63 25 c74 -17 88 -25 67 -43 -10 -8
-31 -3 -80 18 -107 44 -103 52 13 25z m-124 -51 c78 -41 85 -48 69 -59 -20
-15 -17 -16 -103 45 -54 38 -75 61 -57 61 3 0 44 -21 91 -47z m-19 -51 c33
-25 35 -42 5 -42 -17 0 -112 96 -112 113 0 5 17 -3 38 -19 20 -15 52 -39 69
-52z m-129 -5 c38 -74 39 -79 10 -75 -17 2 -25 16 -39 68 -10 36 -18 66 -19
68 0 1 3 2 8 2 4 0 22 -28 40 -63z m55 1 c42 -44 46 -53 32 -61 -12 -6 -21 -5
-29 4 -20 22 -68 109 -60 109 4 0 30 -23 57 -52z"/>
<path d="M981 2013 c-50 -25 -134 -112 -161 -168 -13 -27 -29 -72 -36 -101
-10 -46 -10 -56 6 -82 29 -47 113 -100 201 -126 52 -16 219 -22 232 -10 3 4
-1 23 -9 43 -8 20 -18 64 -21 97 -6 61 -1 76 55 187 2 4 -6 7 -17 7 -38 0
-122 64 -175 133 -16 20 -31 37 -35 37 -3 0 -21 -8 -40 -17z m49 -65 c35 -43
28 -43 -27 1 -17 14 -29 29 -27 33 10 15 21 8 54 -34z m20 -70 c0 -13 -10 -10
-69 23 -71 40 -69 38 -47 54 17 13 24 10 67 -27 27 -23 49 -45 49 -50z m-87
11 c32 -17 55 -35 51 -40 -3 -5 -8 -7 -12 -5 -4 2 -33 16 -65 30 -33 14 -56
30 -52 36 9 15 16 13 78 -21z m203 -25 c24 -14 44 -27 44 -29 0 -1 -7 -20 -16
-40 -8 -21 -19 -57 -23 -79 l-7 -41 -58 0 c-49 1 -60 4 -77 25 -38 50 -17 130
43 169 42 26 41 26 94 -5z m-228 -11 c34 -15 62 -31 62 -36 0 -5 -7 -6 -15 -3
-9 3 -41 13 -73 22 -66 19 -66 19 -57 33 9 15 12 14 83 -16z m-16 -41 c66 -21
82 -32 46 -32 -51 0 -138 23 -138 36 0 18 23 17 92 -4z m-7 -44 c78 -15 87
-33 13 -24 -29 3 -68 6 -85 6 -23 0 -33 5 -33 15 0 18 21 19 105 3z m-15 -48
c0 -5 -18 -10 -40 -10 -22 0 -43 0 -47 -1 -4 0 -9 4 -11 10 -2 7 15 11 47 11
28 0 51 -4 51 -10z m-19 -46 c-37 -17 -58 -21 -65 -14 -20 20 16 34 99 38 11
0 -4 -10 -34 -24z m59 -14 c-64 -39 -90 -48 -90 -32 0 10 118 69 140 71 8 0
-14 -17 -50 -39z m78 12 c-7 -18 -86 -82 -101 -82 -35 0 -24 19 31 53 59 36
76 43 70 29z m32 -18 c0 -19 -57 -94 -71 -94 -32 0 -29 16 13 57 41 40 58 51
58 37z m20 -63 c-14 -28 -27 -41 -41 -41 -20 0 -20 0 2 33 54 79 78 83 39 8z
m50 -10 c-8 -30 -16 -41 -30 -41 -17 0 -18 4 -10 25 5 14 17 40 27 58 21 40
29 17 13 -42z m31 -34 c-19 -19 -22 -1 -9 49 l13 49 3 -44 c2 -24 -1 -48 -7
-54z m48 1 c1 -5 -5 -8 -13 -8 -9 0 -12 8 -8 27 5 25 6 25 13 8 4 -11 8 -23 8
-27z"/>
<path d="M4167 1546 c-22 -33 -92 -65 -163 -74 -44 -6 -58 -12 -55 -22 23 -82
24 -111 7 -171 -9 -34 -26 -80 -36 -102 -22 -45 -20 -49 40 -68 93 -29 392
-17 420 16 29 35 -85 344 -156 420 -29 31 -38 31 -57 1z m43 -20 c0 -17 -46
-56 -66 -56 -20 0 -17 9 14 40 30 31 52 37 52 16z m40 -55 c15 -30 14 -31 -40
-31 -57 0 -62 8 -22 32 36 22 49 22 62 -1z m-123 -23 c45 -50 55 -97 27 -136
-17 -25 -77 -30 -131 -11 -27 9 -31 15 -36 62 -3 29 -7 58 -9 66 -2 10 14 18
52 26 77 17 74 17 97 -7z m158 -39 c4 -6 5 -13 1 -16 -8 -9 -96 7 -96 18 0 13
87 11 95 -2z m-26 -40 c28 -6 52 -17 55 -26 4 -9 5 -17 3 -19 -6 -6 -127 39
-127 47 0 11 9 11 69 -2z m-2 -50 c58 -21 83 -41 83 -66 0 -17 -141 55 -148
75 -5 16 -3 16 65 -9z m-282 -108 c-12 -50 -21 -71 -32 -71 -11 0 -13 5 -7 18
4 9 16 43 27 75 11 31 22 56 24 53 2 -2 -3 -36 -12 -75z m275 -30 c45 -56 46
-57 14 -65 -31 -8 -34 -5 -75 81 -50 107 -35 103 61 -16z m98 27 c6 -6 12 -19
12 -30 0 -16 -10 -11 -60 28 -33 26 -65 53 -72 61 -12 14 94 -38 120 -59z
m-334 -5 c-6 -66 -17 -94 -30 -80 -6 6 7 81 22 135 10 33 14 5 8 -55z m46 48
c0 -10 3 -46 6 -80 7 -58 6 -61 -15 -61 -23 0 -27 25 -15 114 7 44 24 65 24
27z m55 -53 c9 -34 19 -68 22 -75 3 -9 -4 -13 -21 -13 -19 0 -26 5 -26 19 0
10 -3 46 -7 81 -8 80 8 74 32 -12z m53 0 c38 -86 38 -88 12 -88 -19 0 -31 29
-56 133 -12 52 13 27 44 -45z m177 -59 c4 -5 -2 -9 -12 -9 -16 0 -73 59 -73
75 0 8 77 -52 85 -66z"/>
<path d="M1280 1217 c-42 -84 -59 -162 -60 -263 0 -74 10 -79 144 -79 91 0
123 4 181 24 98 34 175 79 175 102 0 5 -14 21 -30 36 -51 45 -71 87 -73 150
l-2 58 -40 -3 c-53 -4 -135 13 -187 38 -23 11 -47 20 -54 20 -7 0 -31 -37 -54
-83z m135 23 c4 -6 -15 -10 -50 -10 -35 0 -54 4 -50 10 3 6 26 10 50 10 24 0
47 -4 50 -10z m150 -20 c33 0 33 0 37 -56 2 -35 -1 -59 -9 -66 -6 -5 -37 -12
-67 -15 -93 -10 -133 34 -101 111 16 38 16 39 62 32 25 -3 60 -6 78 -6z m-171
-20 c-10 -10 -106 -31 -113 -24 -2 2 2 10 9 19 8 10 30 15 63 15 34 0 48 -3
41 -10z m-44 -52 c-71 -32 -90 -38 -90 -30 1 17 18 30 55 40 66 17 83 12 35
-10z m40 -18 c0 -12 -130 -73 -138 -65 -10 10 14 25 74 50 69 29 64 28 64 15z
m20 -37 c0 -11 -160 -96 -167 -90 -11 11 10 28 75 62 67 34 92 42 92 28z m204
-73 c7 -60 3 -80 -15 -80 -5 0 -9 32 -9 70 0 39 4 70 9 70 4 0 11 -27 15 -60z
m-195 -45 c-31 -78 -36 -85 -62 -85 l-28 0 34 53 c68 106 82 125 86 121 2 -2
-11 -42 -30 -89z m71 82 c0 -8 -32 -114 -42 -139 -9 -25 -38 -40 -38 -20 -1
15 65 162 73 162 4 0 7 -1 7 -3z m36 -34 c-3 -21 -7 -54 -8 -73 -2 -36 -12
-50 -37 -50 -14 0 -12 16 16 108 18 60 38 70 29 15z m42 -30 c-2 -53 -6 -68
-18 -68 -16 0 -16 5 -5 88 10 72 26 57 23 -20z m92 6 c0 -15 -4 -31 -10 -34
-6 -4 -10 6 -10 22 0 15 -3 39 -6 53 -5 24 -5 24 10 6 9 -11 16 -32 16 -47z
m-350 -19 c-61 -55 -70 -59 -70 -31 0 13 17 30 53 49 75 43 79 38 17 -18z m55
3 c-47 -74 -64 -91 -87 -85 -20 5 -17 10 36 59 64 59 76 66 51 26z m335 23 c0
-3 -4 -8 -10 -11 -5 -3 -10 -1 -10 4 0 6 5 11 10 11 6 0 10 -2 10 -4z"/>
<path d="M3745 1016 c-43 -22 -103 -26 -172 -13 -40 8 -43 7 -43 -12 0 -59
-87 -165 -161 -198 l-37 -16 19 -32 c47 -79 136 -141 266 -184 93 -31 96 -30
136 43 57 104 69 149 69 266 -1 99 -10 153 -29 162 -4 2 -26 -5 -48 -16z m45
-20 c0 -14 -8 -18 -62 -30 -40 -9 -34 6 10 26 47 21 52 21 52 4z m-160 -22
c57 -8 67 -24 57 -97 -11 -79 -95 -105 -159 -48 l-32 29 27 54 c15 29 27 59
27 67 0 7 6 11 15 7 8 -3 37 -8 65 -12z m170 -34 c0 -21 -23 -25 -70 -10 -27
8 -17 15 30 23 14 2 28 5 33 6 4 0 7 -8 7 -19z m-17 -40 c11 0 17 -8 17 -25
l0 -25 -45 22 c-44 21 -52 45 -11 34 11 -3 29 -6 39 -6z m17 -92 c0 -24 -5
-23 -51 14 -52 42 -50 53 6 26 29 -14 45 -29 45 -40z m-50 -14 c37 -34 55 -84
30 -84 -9 0 -90 101 -90 113 0 16 23 5 60 -29z m-315 -1 c-9 -16 -23 -37 -31
-48 -15 -20 -16 -20 -29 -1 -13 17 -11 21 28 47 23 15 43 28 45 28 2 1 -4 -11
-13 -26z m46 5 c-31 -79 -52 -118 -61 -113 -17 10 -11 30 23 84 33 53 53 67
38 29z m39 -4 c0 -24 -31 -128 -41 -138 -6 -6 -13 -6 -19 0 -7 7 -2 33 17 82
27 69 43 90 43 56z m43 -40 c-3 -69 -15 -144 -22 -144 -4 0 -15 6 -24 13 -16
11 -15 17 5 90 21 76 45 99 41 41z m164 -21 c36 -47 41 -59 31 -76 -10 -20
-11 -20 -29 4 -10 13 -19 27 -19 32 0 4 -11 25 -25 47 -29 45 -30 50 -12 50 6
-1 31 -26 54 -57z m-116 40 c8 -104 9 -151 4 -170 -5 -20 -8 -21 -31 -11 -15
7 -23 17 -19 26 3 7 8 32 11 55 12 91 15 107 24 107 6 0 10 -3 11 -7z m59
-131 c12 -41 20 -76 18 -78 -2 -2 -14 -1 -26 3 -17 4 -22 13 -23 42 -1 20 -3
55 -3 79 -3 56 8 42 34 -46z m60 -34 c0 -7 -4 -19 -9 -27 -6 -9 -15 9 -30 57
-28 92 -27 97 9 35 17 -29 30 -58 30 -65z"/>
<path d="M2105 866 c-32 -17 -58 -21 -132 -21 l-92 0 -7 -52 c-13 -106 14
-224 70 -309 43 -64 57 -67 166 -30 93 32 171 79 226 138 52 56 56 82 15 96
-63 22 -129 83 -156 144 -14 32 -31 57 -38 57 -7 -1 -30 -11 -52 -23z m83 -63
c35 -61 33 -72 -19 -99 -41 -21 -84 -17 -113 9 -26 23 -29 33 -27 78 1 22 9
30 54 47 28 11 57 20 62 21 6 0 25 -25 43 -56z m-239 -5 c-44 -35 -59 -40 -59
-23 0 36 18 52 51 47 l32 -5 -24 -19z m13 -48 c-56 -52 -72 -60 -72 -35 0 17
88 85 110 84 8 0 -9 -22 -38 -49z m36 -18 c-25 -35 -85 -102 -91 -102 -4 0 -7
8 -7 19 0 10 21 37 47 60 49 43 73 54 51 23z m-19 -89 c-40 -51 -77 -81 -68
-55 8 23 104 131 108 121 2 -6 -16 -36 -40 -66z m297 11 c30 -44 34 -57 24
-69 -20 -24 -27 -18 -48 43 -11 31 -23 66 -28 76 -13 34 13 8 52 -50z m48 12
c18 -28 21 -46 7 -46 -8 0 -61 74 -61 85 0 12 38 -16 54 -39z m-94 -33 c28
-77 29 -85 14 -90 -6 -2 -20 29 -32 71 -25 83 -25 86 -14 86 4 0 18 -30 32
-67z m-227 -27 c-26 -42 -54 -76 -60 -76 -20 0 -15 17 15 52 15 18 40 50 56
71 47 65 40 33 -11 -47z m193 -6 c17 -56 20 -76 11 -82 -25 -16 -27 -12 -43
87 -3 22 -8 48 -11 59 -3 11 -1 17 7 14 7 -2 23 -37 36 -78z m-61 48 c30 -133
31 -158 11 -158 -15 0 -20 23 -29 133 -5 48 8 66 18 25z m-30 -90 c6 -77 5
-88 -9 -88 -13 0 -16 11 -16 53 0 49 10 131 15 125 1 -2 6 -42 10 -90z m-86
-19 c-26 -78 -34 -87 -49 -60 -10 19 -6 30 25 77 20 31 39 54 41 51 2 -2 -6
-32 -17 -68z m33 -81 c-6 -6 -16 -8 -24 -6 -13 2 -12 13 6 68 l21 65 3 -59 c2
-32 -1 -63 -6 -68z"/>
<path d="M2828 756 c-53 -60 -110 -93 -181 -102 -34 -5 -47 -11 -47 -23 0 -35
117 -198 179 -250 61 -50 110 -81 130 -81 21 0 124 95 167 156 58 81 114 234
87 234 -5 0 -37 5 -72 10 -72 12 -145 46 -180 84 -14 14 -27 26 -30 26 -3 0
-27 -24 -53 -54z m95 -8 c24 -18 52 -38 63 -44 16 -9 17 -15 6 -50 -17 -58
-45 -84 -90 -84 -55 0 -120 51 -122 96 0 9 82 104 97 113 2 0 22 -14 46 -31z
m170 -68 c46 0 62 -13 48 -38 -11 -21 -11 -21 -61 6 -46 25 -71 52 -34 38 9
-3 30 -6 47 -6z m-378 -45 c-62 -29 -87 -34 -92 -17 -3 7 5 12 19 13 13 0 39
7 58 14 58 22 69 15 15 -10z m412 -42 c2 -5 -1 -14 -6 -22 -8 -12 -15 -10 -44
12 -51 39 -68 57 -62 68 6 9 108 -44 112 -58z m-407 -3 c-46 -40 -63 -45 -68
-18 -2 10 15 22 50 36 29 11 55 21 58 21 3 1 -15 -17 -40 -39z m34 -35 c-30
-51 -51 -66 -65 -44 -7 10 3 25 38 56 26 23 49 41 51 39 2 -3 -9 -25 -24 -51z
m305 17 c39 -34 42 -41 32 -60 -6 -12 -16 -22 -20 -22 -16 0 -83 91 -77 105 8
22 16 19 65 -23z m-254 -4 c-11 -36 -57 -118 -67 -118 -16 0 -8 29 25 84 33
57 54 74 42 34z m45 -17 c0 -5 -13 -39 -30 -75 -28 -63 -42 -77 -55 -57 -8 14
57 141 72 141 7 0 13 -4 13 -9z m165 -36 c27 -32 35 -50 30 -65 -11 -35 -14
-33 -69 63 -37 63 -12 65 39 2z m-131 8 c-18 -85 -39 -163 -44 -163 -3 0 -13
7 -23 14 -16 12 -15 18 20 95 38 81 59 105 47 54z m92 -49 c35 -63 36 -66 18
-85 -23 -25 -28 -19 -53 67 -35 118 -24 123 35 18z m-36 -77 c9 -30 9 -41 0
-52 -23 -27 -30 -15 -30 47 0 66 10 68 30 5z m-52 -42 c-2 -16 -7 -22 -15 -17
-9 6 -9 18 0 52 10 39 12 42 15 18 2 -16 2 -39 0 -53z"/>
</g>
</svg>
